<?xml version="1.0" encoding="utf-8"?>
<!-- Generator: Adobe Illustrator 19.2.1, SVG Export Plug-In . SVG Version: 6.00 Build 0)  -->
<svg version="1.1" id="Layer_1" xmlns="http://www.w3.org/2000/svg" xmlns:xlink="http://www.w3.org/1999/xlink" x="0px" y="0px"
	 viewBox="0 0 1651.2 390.7" style="enable-background:new 0 0 1651.2 390.7;" xml:space="preserve">
<style type="text/css">
	.st0{fill:#FFFFFF;}
	.st1{fill:#F9DC16;}
</style>
<g>
	<g id="G1gewv.tif_1_">
		<g>
			<g>
				<path class="st0" d="M164.4,390c0-2-1.7-3.1-3.4-3.4c-24.5-5.4-39.5-21.4-49.7-43.2c-0.7-1.4-1.7-2.7-4.4-3.7
					c0,14.3,0,28.2,0,43.2c-36.4,0-71.1,0-106.9,0C0,255.2,0,128,0,0c38.1,0,75.9,0,114.3,0c0,49,0,98,0,146.7c2.7,0.3,3.4-1,4.1-2
					c31.7-49,125.6-48.7,155.9,22.8c14.3,33.7,16.3,68.7,13.3,104.5c-2,23.5-6.8,46.6-18.4,67.4c-13.3,24.5-33,41.5-61.3,47.3
					c-2,0.3-5.1,0-6.1,3.1C189.6,390,177,390,164.4,390z M168.5,245.4c0-12.6-0.3-25.2-5.1-37.4c-4.4-11.2-13.6-18-23.8-17.7
					c-11.2,0.7-19.7,6.5-22.8,17.4c-7.5,25.9-7.8,51.7-0.3,77.6c3.1,10.6,10.6,17.4,22.1,17.7c11.6,0,18.7-6.1,23.1-16.3
					C167.8,273.3,168.5,259.3,168.5,245.4z"/>
				<path class="st1" d="M1229.6,390c-3.1-4.1-7.8-2-11.6-2.7c-60.6-10.9-99-48-118.1-104.5c-18.7-55.5-16-111.6,6.5-165.7
					c25.5-60.2,73.5-91.2,138.2-95.6c35.4-2.4,70.8-0.3,105.8,7.8c2.4,0.7,4.8,1.4,7.5,2.4c0,26.5,0,52.8,0,79.6
					c-9.5,1-17.4-3.1-25.9-4.8c-25.5-5.1-51.4-8.5-77.3-3.1c-32,6.5-51.4,32.3-49.7,66c13.3-7.8,26.9-13.6,41.5-16.7
					c55.1-11.6,108.2,11.6,129.3,58.9c24.8,56.2,11.9,139.2-72.1,168.5c-14,4.8-28.2,5.8-42.2,10.2
					C1250.7,390,1240.1,390,1229.6,390z M1204.4,265.8c-0.7,11.2,2,21.4,8.2,31c15,22.5,48.3,21.1,61.3-2.4
					c9.5-17.4,10.9-35.4,3.4-53.8c-6.1-15.7-21.1-24.5-37.4-23.5c-16.7,1-28.6,11.6-33,28.9C1204.7,252.5,1204.1,259,1204.4,265.8z"
					/>
				<path class="st1" d="M1484.8,390c-6.1-3.7-13.3-3.1-20.1-4.1c-19.1-2.4-37.8-7.1-57.2-11.9c0-26.9,0-53.4,0-80.7
					c15.7,2.7,31.3,7.1,47,8.8c16.7,2,32.7,1.4,49-2.7c15.3-3.7,24.2-14,26.9-28.9c2.7-16.3-1-31-16.3-40.5
					c-17.7-10.9-37.8-12.3-58.2-10.2c-15,1.4-29.9,3.1-44.9,8.2c0-66.7,0-133.1,0-200.1c74.5,0,149.4,0,224.6,0
					c0,26.9,0,53.8,0,81.3c-39.5,0-79,0-118.8,0c0,18.4,0,36.1,0,54.5c14.6,1.7,29.3-1.4,43.9,0c45.9,4.4,81.7,38.5,88.5,84.7
					c0.3,2.4-0.7,5.1,2,6.5c0,12.6,0,25.2,0,38.1c-3.1,9.2-5.4,18.4-8.8,27.2c-15.7,37.4-47.3,54.1-84.4,63.6
					c-10.9,2.7-22.5,1.7-33.4,6.1C1511.7,390,1498.4,390,1484.8,390z"/>
				<path class="st1" d="M907,390c-14-4.8-28.9-3.4-43.2-6.1c-13.6-2.7-27.6-5.1-40.8-9.2c0-27.2,0-53.8,0-81.7
					c10.2,2.7,19.7,5.1,29.3,7.5c25.5,6.5,51,7.8,77.3,3.4c13.3-2.4,22.1-10.9,23.8-23.1c2-15-3.4-27.6-16-33.7
					c-18.7-9.2-38.8-7.5-58.9-5.8c-4.8,0.3-9.5,1-15.3,1.7c0-26.2,0-51.4,0-77.6c18.7,1.4,36.8,2,54.8-1c11.9-2,23.5-5.4,28.9-18
					c4.8-10.9,2.7-21.8-4.1-31c-7.8-10.2-19.1-13.6-31.7-14.3c-26.2-1.4-51.7,1.7-76.6,10.2c-2.7,1-5.1,1.4-8.8,2.4
					c0-26.2,0-51.7,0-78.3c14.6-6.5,31.3-9.5,48-11.2c36.4-4.1,72.8-6.1,108.9,3.1c22.5,5.8,42.9,15.3,60.2,31
					c37.8,34,40.5,112.3-24.5,139.5c-2.4,1-5.1,2-8.5,3.7c17,6.8,32.7,14,44.2,27.6c35.4,41.2,22.5,107.9-25.5,136.5
					c-22.8,13.6-47.6,20.4-73.5,22.5c-2,0-4.4-0.3-5.4,2C935.2,390,920.9,390,907,390z"/>
				<path class="st0" d="M430.2,390c-4.4-4.8-10.9-3.4-16.3-4.8c-62.6-13.6-98.4-54.1-103.5-118.4c-1.7-21.4-1.4-42.9,3.4-64
					c9.5-40.8,34-68.4,73.9-81.7c32-10.9,64.7-12.9,97.7-7.8c37.4,5.8,64.3,25.9,80.3,60.6c15.3,33.7,17.4,69.4,16.3,107.2
					c-26.9,0-53.1,0-79.3,0s-52.4,0-79.3,0c-0.3,14.3,4.8,24.2,16,31c8.5,5.1,18,7.5,27.9,8.2c33.4,2.7,65.7,0,97.3-15.3
					c0,23.5,0,45.6,0,68.7c-20.4,8.2-42.2,11.2-64,14c-2.4,0.3-5.8-1.4-7.1,2.4C472.4,390,451.3,390,430.2,390z M481.9,224.6
					c0-13.6-0.7-25.5-6.1-37.1c-4.1-8.5-10.6-14-20.4-14.3c-10.2-0.7-18.4,3.1-23.8,12.3c-7.1,12.3-8.8,25.2-7.8,39.5
					C443.1,224.6,461.8,224.6,481.9,224.6z"/>
				<path class="st0" d="M698,390c-0.3-2.7-3.1-2.7-4.8-3.1c-37.1-8.5-54.8-34-60.6-69.4c-4.8-28.6-1.7-57.5-2.4-86.4
					c-0.3-11.9,0-23.8,0-36.4c-13.3-2.4-26.2,0-39.8-1c0-25.2,0-50,0-75.9c12.6,0,25.2,0,39.5,0c0-21.4,0-41.5,0-61.9
					c38.8-13.3,76.2-25.9,115.7-39.1c0,34.4,0,67,0,101.1c18,0,34.7,0,51.7,0c0,25.9,0,50.7,0,76.6c-17.4,0-34,0-51.7,0
					c0.7,29.6-1.7,58.5,1.7,87.1c2,15.7,13.6,23.5,29.3,22.1c6.5-0.7,12.9-2,20.4-3.4c0,25.2,0,50,0,75.9
					c-16,6.1-33.4,9.2-50.4,12.3c-2,0.3-5.1-1-6.1,2.4C726.3,390,712.3,390,698,390z"/>
			</g>
		</g>
	</g>
</g>
</svg>
