<?xml version="1.0" encoding="utf-8"?>
<!-- Generator: Adobe Illustrator 19.2.1, SVG Export Plug-In . SVG Version: 6.00 Build 0)  -->
<svg version="1.1" id="Layer_1" xmlns="http://www.w3.org/2000/svg" xmlns:xlink="http://www.w3.org/1999/xlink" x="0px" y="0px"
	 viewBox="0 0 993.2 131.3" style="enable-background:new 0 0 993.2 131.3;" xml:space="preserve">
<style type="text/css">
	.st0{fill:#EB3637;}
	.st1{fill:#FEFEFD;}
</style>
<g id="O25fcN_1_">
	<g>
		<path class="st0" d="M47.8,129.6c0-24.3,0-48.7,0-73.6c-16.1-2.1-32-1.7-47.8-3.7c15.7-1.8,31.4-2.5,47.6-2.8
			c0-16.5,0-32.5,0-47.9C48.8-0.1,49.8,0,50.8,0c19.5,0.1,39,0,58.5,0.3c9,0.1,17.9,1,26.4,4.4C144,8,151,13,154.2,21.6
			c5.4,14.7,1,28.7-11.5,36.1c-1.8,1.1-3.6,1.7-5.7,0.8c-8.1-3.4-16.7-5.1-25.6-7.1c2.6-1.5,4.9-2.6,7.1-4.1
			c7.2-5.1,6.3-15.4-1.5-19.2c-2.1-1-4.3-1.9-6.6-2.2c-9.8-1-19.5-0.3-29.6-0.5c0,8.3,0,16.1,0,23.9c2.6,1.5,5.4,1.1,8.2,1.4
			c16.9,1.3,33.6,3.7,49.5,10.2c5.6,2.3,10.7,5.2,15.1,9.5c7.3,7.1,9.7,16,9.3,25.8c-0.5,13.1-7.7,21.5-18.7,27.2
			c-9.8,5.1-20.5,6.9-31.3,7c-20.5,0.3-41,0.1-61.5,0.1C50.5,130.5,49.5,130.7,47.8,129.6z M82.3,105.6c11.5-0.1,23.3,0.9,34.9-1.1
			c5.5-0.9,10.4-3.6,12.3-9.6c1.8-5.7-0.6-12.6-5.7-16.8c-7.2-5.9-15.6-9.2-24.3-12.2c-6.7-2.3-13.6-3.9-21.2-5.2
			c2.9,3.9,3.3,7.7,3.2,11.8c-0.1,9.3-0.1,18.6-0.1,27.9C81.4,101.9,80.9,103.6,82.3,105.6z"/>
		<path class="st0" d="M261,0.3c0,8.8,0,17.3,0,26.3c-18.6,0-37.3,0-56.3,0c0,8.5,0,16.4,0,24.9c17.7,0,35.3,0,53.1,0
			c0,8.6,0,16.7,0,25.2c-17.7,0-35.3,0-53.1,0c0,9.1,0,17.7,0,26.8c19.6,0,39.4,0,59.4,0c0,9.2,0,17.9,0,26.9c-29.9,0-59.6,0-89.7,0
			c0-43.4,0-86.6,0-130.1C203.2,0.3,231.8,0.3,261,0.3z"/>
		<path class="st1" d="M438.6,0.7c20.1-0.3,37.5,6.3,50.9,21.7c12.9,14.8,17.7,32.3,15.4,51.8c-1.9,16.5-9,30.4-21.5,41.3
			c-10.4,9.1-22.7,14-36.5,15.4c-15.8,1.6-30.8-0.8-44.4-9.2c-18.9-11.7-28.7-28.9-30.3-50.9c-1.3-17.2,3-32.8,13.9-46.4
			c11.9-14.8,27.7-22.2,46.4-23.7C434.6,0.5,436.6,0.7,438.6,0.7z M392.4,66.6c0,2.5,0.2,6.1,1,9.8c3.6,17.4,13.6,29.6,30.5,34.9
			c17.5,5.5,34,2.5,47.4-10.8c12.6-12.4,16.1-28.2,12.8-45c-5.9-30.2-34.1-43.2-60.1-35.3C404.6,26.1,392.4,43.9,392.4,66.6z"/>
		<path class="st1" d="M611.4,86.7c0-29.3,0-57.3,0-85.6c5.9,0,11.6,0,17.7,0c0,42.7,0,85.6,0,129.3c-28.9-28.4-57.4-56.5-86.5-85.1
			c0,28.9,0,56.8,0,85.1c-6.1,0-11.9,0-18,0c0-43.1,0-86.2,0-130C553.6,29.2,582.1,57.5,611.4,86.7z"/>
		<path class="st1" d="M887.2,129.7c-28.9-28-57.3-55.6-86.5-83.9c0,28.8,0,56.6,0,84.7c-6.1,0.5-11.9,0.2-18,0.2
			c0-43.2,0-86.3,0-130.2c28.8,28.8,57.4,57.3,86.5,86.4c0-29,0-57.3,0-85.8c6.2,0,12,0,18,0C887.2,43.7,887.2,86.4,887.2,129.7z"/>
		<path class="st0" d="M272.7,0.7c41.6,0,82.9,0,125,0c-4.9,3.4-9.4,6.1-13.4,9.5c-4.7,3.9-8.6,8.3-11.8,13.4
			c-1.8,2.8-3.8,3.6-6.9,3.5c-6.5-0.2-13-0.1-19.5,0c-1.6,0-3.3-0.3-5.6,0.6c0,34,0,68.2,0,102.7c-10.6,0-20.5,0-31.1,0
			c0-34.2,0-68.4,0-103.1c-12.6,0-24.5,0-36.6,0C272.7,18.2,272.7,9.7,272.7,0.7z"/>
		<path class="st1" d="M925.7,17.7c0,13.1,0,25.3,0,38.3c20.1,0,40.2,0,60.4,0c0,6.2,0,11.8,0,17.7c-20.1,0-40,0-60.2,0
			c0,13.1,0,25.8,0,39c22.3,0,44.7,0,67.4,0c0,6.2,0,11.9,0,17.8c-28.9,0-57.6,0-86.6,0c0-43.3,0-86.3,0-129.6c27.9,0,55.7,0,83.7,0
			c0,5.5,0,10.9,0,16.7C968.9,17.7,947.5,17.7,925.7,17.7z"/>
		<path class="st1" d="M667.3,112.9c19.9,0,39.1,0,58.7,0c0,6,0,11.5,0,17.5c-25.8,0-51.4,0-77.5,0c0-43.3,0-86.6,0-130.1
			c6.3,0,12.4,0,18.8,0C667.3,37.7,667.3,74.9,667.3,112.9z"/>
		<path class="st1" d="M744.7,130.4c-0.4-4.9-0.4-124.5,0-129.7c3,0,6.1,0,9.3,0c3,0,5.9,0,9.2,0c0,43.3,0,86.3,0,129.7
			C757.2,130.4,751.1,130.4,744.7,130.4z"/>
	</g>
</g>
</svg>
