<svg id="Capa_1" data-name="Capa 1" xmlns="http://www.w3.org/2000/svg" viewBox="0 0 199.3 26"><defs><style>.cls-1{fill:#fff;}</style></defs><title>logo</title><path class="cls-1" d="M3.3,10.1c0-5,0-6-.1-7,0-1.2-.3-1.7-1.3-1.9A5.28,5.28,0,0,0,.6,1.1Q0,1.1,0,.8C0,.6.2.5.7.5,2.5.5,4.5.6,5.2.6,6.8.6,8.1.5,9.2.5c6,0,7.1,3.2,7.1,5,0,2.7-1.6,4.3-3.4,5.8,2.7.9,6,3.3,6,7.2,0,3.5-2.7,7.2-8.8,7.2-.4,0-1.4-.1-2.3-.1s-2-.1-2.5-.1H3.4c-.8,0-1.6.1-2.3.1-.4,0-.7-.1-.7-.3s.1-.3.5-.3.9-.1,1.2-.1c.7-.1.8-.9,1-1.8A65.75,65.75,0,0,0,3.3,16Zm4,.5c0,.3.1.3.2.4a6.22,6.22,0,0,0,1.6.1,3.44,3.44,0,0,0,2.4-.6A4.23,4.23,0,0,0,12.9,7c0-2.2-1.3-5.1-4.1-5.1A3.42,3.42,0,0,0,7.7,2c-.3,0-.4.1-.4.5Zm4.4,2.7A5.08,5.08,0,0,0,9,12.5H7.6a.22.22,0,0,0-.2.2v7.8c0,2.2.1,2.7,1.2,3.2a5.49,5.49,0,0,0,2.4.4,3.84,3.84,0,0,0,4-4.2A8.2,8.2,0,0,0,11.7,13.3Z" transform="translate(0 0)"/><path class="cls-1" d="M19.8,14.8c0-4.8,3.4-11,12.2-11,7.4,0,11.9,4.1,11.9,10.5S39.2,25.8,31.7,25.8C23.2,25.9,19.8,19.8,19.8,14.8Zm19.8.6c0-6.2-3.7-10.1-8.4-10.1C28,5.3,24.1,7,24.1,14c0,5.8,3.3,10.4,8.8,10.4C34.9,24.3,39.6,23.4,39.6,15.4Z" transform="translate(0 0)"/><path class="cls-1" d="M44.7,14.8c0-4.8,3.4-11,12.2-11,7.4,0,11.9,4.1,11.9,10.5S64.1,25.8,56.6,25.8C48.1,25.9,44.7,19.8,44.7,14.8Zm19.8.6c0-6.2-3.7-10.1-8.4-10.1C52.8,5.3,49,7,49,14c0,5.8,3.3,10.4,8.8,10.4C59.8,24.3,64.5,23.4,64.5,15.4Z" transform="translate(0 0)"/><path class="cls-1" d="M75.6,13.6h.1c1-1.1,5.2-5.2,6.1-6.2s1.5-1.6,1.5-2.1a.55.55,0,0,0-.4-.6c-.3-.1-.4-.1-.4-.3s.2-.3.5-.3c.6,0,2.2.1,3,.1s2.5-.1,3.4-.1c.3,0,.5.1.5.3s-.2.3-.4.3a5.55,5.55,0,0,0-1.7.3,8,8,0,0,0-3.1,2.1c-.9.9-5.3,5-6.2,6,1,1.3,6.8,7.3,7.9,8.3a12.75,12.75,0,0,0,4,3,4.08,4.08,0,0,0,1.8.4c.2,0,.4.1.4.3s-.2.3-.7.3H89.4a11.52,11.52,0,0,1-2-.1,5.9,5.9,0,0,1-3.8-1.8c-1.3-1.1-7-7.5-7.6-8.3l-.3-.4h-.1v2.5c0,2.6,0,4.8.1,6,.1.8.3,1.3,1.1,1.5a7.08,7.08,0,0,0,1.4.1.45.45,0,0,1,.4.3q0,.3-.6.3c-1.6,0-3.7-.1-4.4-.1s-2.5.1-3.7.1q-.6,0-.6-.3c0-.1.1-.3.5-.3a2.79,2.79,0,0,0,1-.1c.6-.1.8-.7.9-1.5.1-1.2.1-3.4.1-6V6.3c-.1-1-.3-1.3-1.3-1.5a3.78,3.78,0,0,0-1.2-.1c-.3,0-.5-.1-.5-.3s.2-.3.7-.3c1.5,0,3.4.1,4.1.1s2.8-.1,3.7-.1q.6,0,.6.3c0,.2-.2.3-.4.3a2.2,2.2,0,0,0-.8.1c-.8.1-1,.5-1.1,1.5v7.3Z" transform="translate(0 0)"/><path class="cls-1" d="M93.8.9Q94,0,94.4,0c.3,0,.5.2.9,1l9,18.4,9-18.6c.3-.5.4-.8.7-.8s.5.3.6,1l3,20.3c.3,2.1.6,3,1.6,3.3a6.44,6.44,0,0,0,2.1.3c.3,0,.5,0,.5.2s-.4.4-.9.4c-.8,0-5.4-.1-6.7-.2-.8-.1-1-.2-1-.4s.1-.3.4-.4.3-.5.2-1.4l-2-14.4h-.1l-7.2,14.8c-.8,1.6-.9,1.9-1.2,1.9s-.6-.7-1.2-1.7c-.8-1.5-3.4-6.6-3.8-7.5-.3-.7-2.3-4.6-3.4-7.1h-.1L93.1,22a8.6,8.6,0,0,0-.1,1.6c0,.6.4.9,1,1.1a11.48,11.48,0,0,0,1.4.2c.3,0,.5.1.5.2,0,.3-.3.4-.8.4-1.4,0-2.9-.1-3.5-.1s-2.2.1-3.3.1c-.3,0-.6-.1-.6-.4s.2-.2.5-.2a4.14,4.14,0,0,0,1-.1c.9-.2,1.2-1.5,1.4-2.6Z" transform="translate(0 0)"/><path class="cls-1" d="M125.6,18.4c-.2,0-.2,0-.3.2l-1.6,3.8a4.92,4.92,0,0,0-.4,1.7c0,.5.3.8,1.2.8h.4c.4,0,.4.1.4.3s-.2.3-.5.3c-1,0-2.3-.1-3.2-.1-.3,0-1.9.1-3.4.1-.4,0-.5-.1-.5-.3a.27.27,0,0,1,.3-.3h.9c1.3-.2,1.8-1.1,2.4-2.5L129,4.8c.3-.8.6-1.1.9-1.1s.6.3.9.9c.7,1.6,5.6,12.9,7.4,17.2,1.1,2.5,2,2.9,2.5,3a4.48,4.48,0,0,0,1.1.1c.3,0,.4.1.4.3s-.2.3-1.3.3-3.1,0-5.6-.1c-.5,0-.9,0-.9-.2s.1-.3.4-.3.4-.3.3-.6l-2.3-5.7c-.1-.2-.2-.2-.3-.2Zm6.2-1.6c.1,0,.2-.1.1-.2l-2.7-7.1a1,1,0,0,0-.1-.3c-.1,0-.1.2-.2.3l-2.8,7c-.1.1,0,.2.1.2h5.6Z" transform="translate(0 0)"/><path class="cls-1" d="M146.6,13.6h.1c1-1.1,5.2-5.2,6.1-6.2s1.5-1.6,1.5-2.1a.55.55,0,0,0-.4-.6c-.3-.1-.4-.1-.4-.3s.2-.3.5-.3c.6,0,2.2.1,3,.1s2.5-.1,3.4-.1c.3,0,.5.1.5.3s-.2.3-.4.3a5.55,5.55,0,0,0-1.7.3,8,8,0,0,0-3.1,2.1c-.9.9-5.3,5-6.2,6,1,1.3,6.8,7.3,7.9,8.3a12.75,12.75,0,0,0,4,3,4.08,4.08,0,0,0,1.8.4c.2,0,.4.1.4.3s-.2.3-.7.3h-2.5a11.52,11.52,0,0,1-2-.1,5.9,5.9,0,0,1-3.8-1.8c-1.3-1.1-6.9-7.6-7.5-8.4l-.3-.4h-.1v2.5c0,2.6,0,4.8.1,6,.1.8.3,1.3,1.1,1.5a7.08,7.08,0,0,0,1.4.1.45.45,0,0,1,.4.3q0,.3-.6.3c-1.6,0-3.7-.1-4.4-.1s-2.5.1-3.7.1q-.6,0-.6-.3c0-.1.1-.3.5-.3a2.79,2.79,0,0,0,1-.1c.6-.1.8-.7.9-1.5.1-1.2.1-3.4.1-6V6.2c-.1-1-.3-1.3-1.3-1.5a3.78,3.78,0,0,0-1.2-.1c-.3,0-.5-.1-.5-.3s.2-.3.7-.3c1.5,0,3.4.1,4.1.1s2.8-.1,3.7-.1q.6,0,.6.3c0,.2-.2.3-.4.3a2.2,2.2,0,0,0-.8.1c-.8.1-1,.5-1.1,1.5v7.4Z" transform="translate(0 0)"/><path class="cls-1" d="M163,12.4v-6c-.1-1-.3-1.3-1.3-1.5a3.78,3.78,0,0,0-1.2-.1c-.3,0-.5-.1-.5-.3s.2-.3.7-.3c1.5,0,3.4.1,4.2.1h7.9a3.26,3.26,0,0,0,1.2-.2c.2,0,.3-.1.5-.1s.2.1.2.3a7.19,7.19,0,0,0-.2,1.8,13.67,13.67,0,0,1-.2,1.9c0,.1-.1.5-.3.5s-.2-.1-.2-.4a2,2,0,0,0-.2-1c-.2-.5-.5-.9-1.9-1-.5-.1-4-.1-4.6-.1-.1,0-.2.1-.2.3v7c0,.2,0,.3.2.3.7,0,4.4,0,5.1-.1a3.35,3.35,0,0,0,1.4-.4c.2-.2.3-.4.5-.4s.2.1.2.3-.1.6-.2,2.1A14.93,14.93,0,0,0,174,17c0,.2,0,.6-.3.6s-.3-.1-.3-.2a3.4,3.4,0,0,0-.1-1c-.2-.6-.5-1-1.6-1.1-.5-.1-3.8-.1-4.6-.1-.1,0-.2.1-.2.3V22c.1,1.9,1,2.4,3.9,2.4a6.13,6.13,0,0,0,2.7-.4c.7-.3,1.1-.9,1.3-2.1.1-.3.1-.4.3-.4s.3.4.3.7a16.46,16.46,0,0,1-.4,3.1c-.2.7-.5.7-1.6.7-2.2,0-3.9,0-5.4-.1s-2.5-.1-3.4-.1h-1.7c-.7,0-1.4.1-2,.1q-.6,0-.6-.3c0-.1.1-.3.5-.3a2.79,2.79,0,0,0,1-.1c.6-.1.8-.7.9-1.5.1-1.2.1-3.4.1-6V12.4Z" transform="translate(0 0)"/><path class="cls-1" d="M178.9,12.4v-6c-.1-1-.3-1.3-1.3-1.5a3.78,3.78,0,0,0-1.2-.1c-.3,0-.5-.1-.5-.3s.2-.3.7-.3c1.5,0,3.4.1,4,.1,1,0,3.6-.1,4.5-.1a10.14,10.14,0,0,1,5.5,1.2,5.12,5.12,0,0,1,2.1,3.9c0,2.1-1.2,3.9-4,6.2,2.6,3.2,4.6,5.7,6.4,7.5a5.64,5.64,0,0,0,3.1,1.9,2,2,0,0,0,.7.1.45.45,0,0,1,.4.3q0,.3-.6.3h-2.8a6.47,6.47,0,0,1-3.2-.6c-1.3-.6-2.4-2-4-4.1-1.2-1.5-2.4-3.4-2.7-3.8a.55.55,0,0,0-.5-.2l-2.6-.1a.22.22,0,0,0-.2.2v.4a47.3,47.3,0,0,0,.2,6c.1.8.2,1.4,1.1,1.5a7.08,7.08,0,0,0,1.4.1.45.45,0,0,1,.4.3q0,.3-.6.3c-1.7,0-4.1-.1-4.5-.1-.6,0-2.4.1-3.6.1q-.6,0-.6-.3c0-.1.1-.3.5-.3a2.79,2.79,0,0,0,1-.1c.6-.1.8-.7.9-1.5.1-1.2.1-3.4.1-6v-5Zm3.7,2.1a.46.46,0,0,0,.3.5,7.8,7.8,0,0,0,2.2.3c1.2,0,1.6-.1,2.1-.5a4.79,4.79,0,0,0,1.9-4.2c0-4-2.7-5-4.4-5a7.63,7.63,0,0,0-1.7.1c-.2.1-.3.2-.3.4v8.4Z" transform="translate(0 0)"/></svg>