<?xml version="1.0" encoding="utf-8"?>
<!-- Generator: Adobe Illustrator 19.2.1, SVG Export Plug-In . SVG Version: 6.00 Build 0)  -->
<svg version="1.1" id="Layer_1" xmlns="http://www.w3.org/2000/svg" xmlns:xlink="http://www.w3.org/1999/xlink" x="0px" y="0px"
	 viewBox="0 0 863.1 92.2" style="enable-background:new 0 0 863.1 92.2;" xml:space="preserve">
<style type="text/css">
	.st0{fill:#D12533;}
</style>
<g>
	<g>
	</g>
	<g id="jvFEyO_2_">
		<g>
			<path class="st0" d="M55.1,0.8c16.4,0,32.9-0.4,49.3,0.1c13.9,0.4,22.9,8.3,23.1,22.2c0.1,6.2,1.6,12.8-2,18.5
				c-1.9,3-1.4,4.9,0.4,7.5c6.3,8.6,5.3,30.5-5.6,37c-5.2,3.1-10.7,5.3-16.8,5.3c-33.4,0.1-66.7,0-100.1,0.2c-2.8,0-3.4-1-3.4-3.5
				C0.2,60,0.2,32,0.1,4c0-2.8,1-3.3,3.5-3.3C20.8,0.8,37.9,0.8,55.1,0.8L55.1,0.8z M62.8,53.4C62.8,53.3,62.8,53.3,62.8,53.4
				c-13.1,0-26.2,0-39.3-0.1c-2.8,0-4,1-3.9,3.7c0.1,3.2,0,6.4,0,9.6c0,4.5,0.4,4.9,4.9,4.9c19.8,0,39.5,0,59.3,0
				c6,0,11.9,0.1,17.9-0.1c5.4-0.1,8.3-3.2,8.5-8.5c0.2-6.6-2.7-9.5-9.5-9.6C88,53.3,75.4,53.4,62.8,53.4z M61.6,38.3
				C61.6,38.3,61.6,38.2,61.6,38.3c12.8,0,25.5,0.1,38.3-0.1c5.9-0.1,8.2-2.8,8.2-8.9c0-5.7-2.9-8.9-8.4-8.9
				c-25.5-0.1-51,0-76.5-0.1c-2.7,0-3.6,1.1-3.6,3.6c0.1,3,0,6,0,8.9c0,5,0.3,5.3,5.2,5.3C37.1,38.3,49.3,38.3,61.6,38.3z"/>
			<path class="st0" d="M647,0.8c15.7,0,31.5-0.5,47.2,0.1c14.8,0.6,25.5,10.3,26.3,25c0.7,13,0.5,26,0.1,39
				c-0.3,11.5-8.6,21.3-19.4,24.9c-4,1.3-7.9,1.7-11.9,1.7c-30.3,0-60.6-0.1-90.8,0.1c-3.6,0-4.8-1.1-4.8-4.6
				c0.1-27.3,0.1-54.6,0-81.9c0-3.1,0.9-4.4,4.3-4.3C614.3,0.9,630.7,0.8,647,0.8L647,0.8z M653.8,71.6c12,0,24,0.1,36.1,0
				c6.3,0,10.9-4,11-10.3c0.3-10.1,0.3-20.2,0-30.3c-0.2-6.1-5.2-10.6-11.3-10.7c-24.2-0.1-48.3,0-72.5-0.1c-3.2,0-4,1.3-4,4.3
				c0.1,14,0,28.1,0.1,42.1c0,4.5,0.4,4.9,4.9,4.9C630,71.6,641.9,71.6,653.8,71.6z"/>
			<path class="st0" d="M226.9,0.8c12.2,0,24.3-0.2,36.5,0.1c9.8,0.2,17.6,4.5,22.7,13.1c2,3.4,3.4,7.1,3.4,11.2
				c0.1,14.2,0.3,28.4,0,42.5c-0.2,10.5-7.8,18.9-17.8,22.1c-4.6,1.5-9.1,1.7-13.7,1.7c-22.4,0-44.8,0.3-67.2-0.1
				c-11.3-0.2-20.3-5.2-25.3-16.1c-1.6-3.4-2.1-7.1-2.1-10.8c-0.1-12-0.2-24.1,0-36.1c0.2-12.2,7.5-21.7,18.9-26
				c3.4-1.3,6.6-1.6,10.1-1.6C203.8,0.8,215.3,0.8,226.9,0.8L226.9,0.8z M226.1,20.4L226.1,20.4c-10.7,0-21.4-0.1-32.2,0
				c-7.4,0.1-10.4,3-10.8,10.3c-0.3,5.3-0.2,10.7-0.1,16.1c0,5.1,0.1,10.2,0.3,15.4c0.2,4.7,2.9,7.6,7.5,8.8c2,0.5,4,0.6,6,0.6
				c20,0,40,0,60,0c8.7,0,13-4.2,13.1-12.9c0.1-8.6,0.1-17.2,0-25.7c-0.2-9.1-3.6-12.4-12.7-12.5C246.8,20.4,236.5,20.4,226.1,20.4z
				"/>
			<path class="st0" d="M554.1,91.6c-8.1,2.3-12.2-1.8-15.2-8.9c-2.1-5-5.3-9.6-7.8-14.4c-1.1-2.1-2.6-3-4.8-3
				c-15.2,0-30.5,0-45.7,0c-3,0-4.1,2-5.2,4.1c-3.5,6.6-7.1,13.2-10.5,19.8c-0.9,1.7-2,2.4-3.9,2.3c-5.1-0.1-10.2,0-15.4,0
				c-3.5,0-4-0.9-2.4-4c5.7-10.7,11.3-21.4,17-32.1c7-13.2,14-26.5,21.3-39.6c2.9-5.2,6.6-9.9,12-12.9c8.1-4.4,18.9-2.5,25.3,3.8
				c5.3,5.2,8.7,11.6,12,18c10.7,20.4,21.4,40.9,32.1,61.3c0.1,0.2,0.2,0.4,0.3,0.6c2.5,4.9,2.5,4.9-3,4.9
				C558.1,91.6,556.1,91.6,554.1,91.6z M503.2,50c4.6,0,9.3,0.1,13.9,0c3,0,3.8-1.3,2.5-3.8c-3.9-7.3-7.7-14.7-11.9-21.8
				c-3-5-5.3-5.1-8.2-0.2c-4.3,7.4-8.2,15-12.2,22.5c-1.2,2.3-0.5,3.3,2,3.3C494,49.9,498.6,50,503.2,50z"/>
			<path class="st0" d="M850.9,91.6c-7,2.4-11.1-1.9-14-9c-2.1-5-5.3-9.5-7.9-14.4c-1-2-2.5-2.8-4.6-2.8c-15.3,0-30.5,0-45.8,0
				c-2.8,0-4,1.6-5.1,3.7c-3.2,6-6.5,11.9-9.4,18c-1.6,3.4-3.6,5-7.6,4.6c-4.5-0.4-9-0.2-13.6-0.1c-2.9,0.1-3.3-1.2-2.1-3.5
				c7.5-14.1,15-28.1,22.5-42.2c5.8-10.9,11.1-22.1,17.7-32.6c2.6-4.2,5.9-7.8,10.2-10.3c7.4-4.3,18.9-2.8,25.3,3.5
				c5.3,5.3,8.8,11.8,12.3,18.3c11.2,21.4,22.5,42.7,33.8,64c1.1,2,0.4,2.6-1.5,2.6C858.2,91.6,855.2,91.6,850.9,91.6z M801.5,49.9
				c4.6,0,9.3,0,13.9,0c2.4,0,3.6-1.2,2.4-3.4c-4.2-7.7-7.8-15.8-12.7-23.1c-2.7-4-4.5-4-7.2,0.1c-4.9,7.3-8.5,15.4-12.7,23.1
				c-1.3,2.3-0.2,3.3,2.3,3.3C792.2,49.9,796.9,49.9,801.5,49.9z"/>
			<path class="st0" d="M327.6,0.8c9.2-2.9,12.3,3,15.8,9.8c9.7,19.1,19.9,37.9,29.9,56.8c0.3,0.5,0.5,1.1,0.9,1.5
				c2.6,3.6,5.1,3.7,7.4-0.2c2.5-4.2,4.7-8.6,6.9-12.9c9.4-17.8,18.8-35.5,28.2-53.3c0.8-1.6,2-1.8,3.5-1.8c5.4,0,10.7,0.1,16.1,0
				c2.9-0.1,3.7,0.7,2.2,3.5c-5.2,9.6-10.2,19.3-15.4,29c-7.8,14.7-15.6,29.4-23.6,44c-2.8,5.1-6.3,9.9-12,12.4
				c-9.6,4.3-18.3,2.3-24.9-4.1c-5.7-5.6-9-12.8-12.7-19.7c-10.6-20.1-21.2-40.2-31.8-60.3c-2.2-4.2-1.9-4.8,2.8-4.8
				c1.2,0,2.4,0,3.6,0C325.5,0.8,326.6,0.8,327.6,0.8z"/>
		</g>
	</g>
</g>
</svg>
