<?xml version="1.0" encoding="utf-8"?>
<svg viewBox="162.91 114.684 225.23 60.21" width="225.23" height="60.21" xmlns="http://www.w3.org/2000/svg">
  <path class="cls-1" d="M83,16a6.34,6.34,0,0,1-1.82,4.9,7.4,7.4,0,0,1-5.26,1.71H72.25v-13h4.07a6.83,6.83,0,0,1,4.93,1.67A6.17,6.17,0,0,1,83,16m-2.85.07q0-4.17-3.69-4.17H75v8.44h1.18q4,0,4-4.27M91,17.64v5H88.24v-13H92a6.47,6.47,0,0,1,3.91,1,3.41,3.41,0,0,1,1.27,2.92,3.42,3.42,0,0,1-.63,2A4.14,4.14,0,0,1,94.79,17q2.92,4.37,3.81,5.65h-3l-3.09-5Zm0-2.23h.89A3.36,3.36,0,0,0,93.8,15a1.53,1.53,0,0,0,.62-1.36,1.41,1.41,0,0,0-.63-1.31,3.84,3.84,0,0,0-2-.39H91Zm20.59,7.21-.94-3.09h-4.73L105,22.62h-3l4.58-13H110l4.59,13ZM110,17.23q-1.31-4.2-1.46-4.75t-.24-.87q-.28,1.14-1.68,5.62Zm12.31.26h4.4V15.25h-4.4V11.91H127V9.65h-7.43v13h2.71Zm16.29-5.55h3.52V9.65h-9.78v2.29h3.51V22.62h2.75Zm14.81,3.45,4.53-5.74h-3l-3.51,4.41-1.09,1.53V9.65h-2.74v13h2.74V18l1.17-.84,3.39,5.47H158Zm10.43,7.23h2.75v-13h-2.75Zm21.11-13h-2.48v6.14c0,.7.05,1.89.14,3.57h-.06L176.9,9.65h-3.47v13h2.46v-6.1c0-.74-.06-2-.17-3.71h.08l5.63,9.81h3.5Zm10.94,8h2.46v2.71a8.74,8.74,0,0,1-1.75.18,3,3,0,0,1-2.51-1.12,5.13,5.13,0,0,1-.86-3.22A4.62,4.62,0,0,1,194.28,13a3.65,3.65,0,0,1,2.85-1.19,6.41,6.41,0,0,1,3,.71l.92-2.2a9.69,9.69,0,0,0-3.85-.8,6.83,6.83,0,0,0-5,1.75,6.57,6.57,0,0,0-1.79,4.9,7.18,7.18,0,0,0,1.54,4.95,5.73,5.73,0,0,0,4.49,1.72,15.18,15.18,0,0,0,2.25-.16,14.88,14.88,0,0,0,2.36-.57V15.34h-5.15ZM215.4,19a3.38,3.38,0,0,0-.68-2.14,6.86,6.86,0,0,0-2.49-1.75,18.7,18.7,0,0,1-1.74-.9,2.1,2.1,0,0,1-.54-.53,1.31,1.31,0,0,1,.25-1.58,1.79,1.79,0,0,1,1.2-.36,5.56,5.56,0,0,1,1.33.16,14.52,14.52,0,0,1,1.72.6l.89-2.14a13.39,13.39,0,0,0-1.92-.67,7.67,7.67,0,0,0-1.93-.24,4.86,4.86,0,0,0-3.22,1,3.36,3.36,0,0,0-1.17,2.71,3.45,3.45,0,0,0,.35,1.59,4.1,4.1,0,0,0,1,1.2A8.11,8.11,0,0,0,210.18,17a15.21,15.21,0,0,1,1.68.88,2.22,2.22,0,0,1,.63.57,1.16,1.16,0,0,1,.21.68,1.19,1.19,0,0,1-.48,1,2.38,2.38,0,0,1-1.39.34,6.58,6.58,0,0,1-1.66-.24,14.72,14.72,0,0,1-2.22-.82V22a8.25,8.25,0,0,0,3.67.78,5.43,5.43,0,0,0,3.51-1A3.32,3.32,0,0,0,215.4,19" style="fill: rgb(255, 255, 255);" transform="matrix(1, 0, 0, 1, 162.910324, 114.683723)"/>
  <rect class="cls-2" width="60.21" height="60.21" style="fill: rgb(83, 211, 55);" transform="matrix(1, 0, 0, 1, 162.910324, 114.683723)"/>
  <path class="cls-3" d="M49.08,10.31a4.41,4.41,0,0,0-2.57,3.77h0a4.4,4.4,0,0,0-4.15-.5,3.93,3.93,0,0,0,.2.54,4.39,4.39,0,0,0,2.71,2.38,8.64,8.64,0,0,1-2.55,2.56,3.21,3.21,0,0,1-1.49.49,3.33,3.33,0,0,1-3.33-1.73,3.34,3.34,0,0,1-4.22,1.45c-.2-.12-.4-.24-.59-.38a8.47,8.47,0,0,1-2.73-3.11,8.14,8.14,0,0,1-.63-1.58h.08a4.37,4.37,0,0,0,3.28-2.12,2.82,2.82,0,0,0,.21-.38l-.37-.25A4.36,4.36,0,0,0,29.44,11a2.7,2.7,0,0,0-.4.14A6.2,6.2,0,0,0,26.5,6.44,5.68,5.68,0,0,0,26,6.16l-.13,0-.09.11a3.52,3.52,0,0,0-.3.45A6.1,6.1,0,0,0,25.6,12l-.41.07a4.42,4.42,0,0,0-2.86,2.07,3.6,3.6,0,0,0-.2.39,2.82,2.82,0,0,0,.36.24,4.39,4.39,0,0,0,3.9.28l.07,0a8.9,8.9,0,0,1,.22,1.68A8.66,8.66,0,0,1,26,20.3v0a.93.93,0,0,0,0,.13l-.15.33q-.2.38-.42.75a3.48,3.48,0,0,1-1.4,1,3.34,3.34,0,0,1-3-.3,3.34,3.34,0,0,1-2.12,3.11,3,3,0,0,1-.92.21,8.55,8.55,0,0,1-4-1,4.36,4.36,0,0,0,1.23-3.39,6,6,0,0,0-.08-.74,6.08,6.08,0,0,0-3.4,2.27h0c-.84-.73-2.38-2-4.06-1.89a4.75,4.75,0,0,0-1.13.33,57,57,0,0,1,5.37,4.58c1.18,1.14,2.33,2.35,3.42,3.6,1.51,1.73,4.1,5.22,4.1,5.22a3.51,3.51,0,0,0,2.49.94.25.25,0,0,0,.21-.23c0-.1-.15-.15-.23-.19a1.94,1.94,0,0,1-1.25-1.39c-.49-1.52,4.07-4.28,10.74-6s12-1.48,12.34.09a2,2,0,0,1-.43,1.82c-.05.07-.16.2-.11.27a.25.25,0,0,0,.3.11,3.47,3.47,0,0,0,1.73-2s.72-4.33,1.21-6.58c.35-1.61.78-3.21,1.27-4.78A58.39,58.39,0,0,1,50.19,10a4.4,4.4,0,0,0-1.11.32" style="fill: rgb(255, 255, 255);" transform="matrix(1, 0, 0, 1, 162.910324, 114.683723)"/>
  <path class="cls-3" d="M25.43,31a43.46,43.46,0,0,1,11.29-3.11s7.57,1.1,7.57,10S38,51.52,29.36,51.52s-13.15-3.79-13.15-7.84S19.11,39,20.46,39a4.1,4.1,0,0,1,3.8,4.38s-2.43-.59-2.43,1.51,2.87,3.42,6.82,3.42,9.51-1.73,9.51-9.43c0-8.21-3.8-8.58-6.44-8.58V44.39a1.32,1.32,0,0,0,1.38,1.24s-1.39,1.17-4.83,1.17-4.42-1.1-4.42-1.1,1.63,0,1.63-1.43S25.43,31,25.43,31" style="fill: rgb(255, 255, 255);" transform="matrix(1, 0, 0, 1, 162.910324, 114.683723)"/>
  <path class="cls-2" d="M165.18,32.25h9.17l2.3,2.29v4.67l-1.9,1.9,1.9,1.89v5.14l-2.3,2.3h-9.17Zm6.93,7.49.87-.87V35.81l-.79-.79h-3.37v4.72Zm.11,7.9.76-.76V43.37l-.87-.87h-3.29v5.14Zm8.89.4V34.65l2.4-2.4h6.77l2.4,2.4V48l-2.4,2.4h-6.77Zm7-.5.87-.87V36l-.87-.87h-2.53l-.87.87V46.67l.87.87Zm9,.5V34.65l2.4-2.4h6.78l2.4,2.4V48l-2.4,2.4h-6.78Zm7-.5.87-.87V36l-.87-.87h-2.53l-.87.87V46.67l.87.87Zm17.24,2.9h3.88l-3.9-10.65,3.71-7.54h-3.85l-4.4,9.51V32.25h-3.66V50.44h3.66V46.85l2.06-4Zm-146.87,0h6.7l2.34-2.35V41.71l-2-2H76.58L76,39.13V35.89l.76-.77h2.4l.76.77v1.79h3.67V34.57l-2.32-2.32H74.68l-2.35,2.34v6.25l2,2H79.4l.58.61V46.8l-.77.76H76.68l-.76-.76V45H72.25v3.11ZM88.12,32.25h9l2.38,2.4v6.88l-2.38,2.4H91.79v6.51H88.12Zm7,8.94.79-.82V35.81L95.08,35H91.79v6.2ZM103.67,48V34.65l2.4-2.4h6.77l2.4,2.4V48l-2.4,2.4h-6.77Zm7-.5.87-.87V36l-.87-.87h-2.53l-.87.87V46.67l.87.87Zm9.19-15.29h9.28l2.32,2.34v6.09l-2,2,2.27,7.78h-3.74l-2-7.3h-2.48v7.3H119.9ZM127,40.42l.84-.84v-3.8L127,35h-3.48v5.46Zm11.51,10h3.66v-15H146V32.25H134.68v3.16h3.85Zm13.13,0h6.69l2.35-2.35V41.71l-2-2h-5.06l-.58-.58V35.89l.77-.77h2.39l.77.77v1.79h3.66V34.57l-2.32-2.32h-6.59l-2.34,2.34v6.25l2,2h5.06l.58.61V46.8l-.76.76h-2.53L153,46.8V45h-3.66v3.11Z" style="fill: rgb(83, 211, 55);" transform="matrix(1, 0, 0, 1, 162.910324, 114.683723)"/>
</svg>