<?xml version="1.0" encoding="utf-8"?>
<svg xmlns="http://www.w3.org/2000/svg" viewBox="13970 41 478.877 180" fill="#FFFFFF">
  <g id="Group_11" data-name="Group 11" transform="translate(10014 390)">
    <path id="Path_131" data-name="Path 131" class="parx-logo-cls1" d="M321.721,284.519a6.264,6.264,0,0,0-3.276-11.607,6.135,6.135,0,0,0-4.774,2.246A36.267,36.267,0,0,0,321.721,284.519Zm11.7,4.212a4.515,4.515,0,0,0,4.493-4.587,4.54,4.54,0,1,0-4.493,4.587Zm8.705-70.016a4.025,4.025,0,1,0-4.025,4.025A4.055,4.055,0,0,0,342.126,218.716Zm-19,46.615a1.31,1.31,0,1,0-1.31-1.31A1.28,1.28,0,0,0,323.125,265.331Zm23.12-54.477a43.927,43.927,0,0,0-5.055.562,10.315,10.315,0,0,0,1.685.187A8.075,8.075,0,0,0,346.245,210.853ZM307.4,252.788a45.468,45.468,0,0,0,1.778,12.449,6.267,6.267,0,0,0-1.03-12.449A2,2,0,0,0,307.4,252.788Zm-4.212,29.672h.374a49.249,49.249,0,0,1-6.646-13.76,8.156,8.156,0,0,0-2.059,5.429A8.349,8.349,0,0,0,303.187,282.46Zm52.886,10.952a41.057,41.057,0,0,0,12.917-4.68,7.135,7.135,0,0,0-5.429-2.34A7.423,7.423,0,0,0,356.073,293.412Zm-26.115-78.44a38.59,38.59,0,0,0-8.986,5.991,10.311,10.311,0,0,0,1.685.187A7.356,7.356,0,0,0,329.958,214.972Zm-121.5,6.271A3.557,3.557,0,1,0,204.9,224.8,3.555,3.555,0,0,0,208.46,221.243ZM346.245,293.88a26.315,26.315,0,0,0,2.715.094h1.872a5.438,5.438,0,0,0,3.089-4.867,5.274,5.274,0,0,0-5.335-5.335,5.394,5.394,0,0,0-5.335,5.335A5.217,5.217,0,0,0,346.245,293.88ZM317.7,208.232c.655-.468,1.4-.936,2.059-1.31A6.967,6.967,0,0,0,317.7,208.232Zm.374,15.538a33.732,33.732,0,0,0-5.055,6.927,5.279,5.279,0,0,0,4.867,3.463,5.2,5.2,0,0,0,.187-10.39ZM383.686,274.5a42.957,42.957,0,0,0,5.242-13.385h-.187a7.71,7.71,0,0,0-7.676,7.676A7.056,7.056,0,0,0,383.686,274.5ZM373.109,221.15a11.784,11.784,0,0,0,2.527-.374,40.136,40.136,0,0,0-10.39-6.646A7.842,7.842,0,0,0,373.109,221.15Zm-18.44,2.434a1.5,1.5,0,1,0-1.5,1.5A1.479,1.479,0,0,0,354.669,223.583Zm35.008,28.924c0-1.966-.187-4.025-.374-5.991a8.077,8.077,0,0,0-.187,13.385A46.508,46.508,0,0,0,389.677,252.507ZM363.562,213.38a39.959,39.959,0,0,0-12.543-2.621,7.336,7.336,0,0,0,12.543,2.621Zm19.47,62.153a8.331,8.331,0,0,0-7.582,8.237v.374A44.286,44.286,0,0,0,383.031,275.533Zm-6.646-42.122a6.671,6.671,0,0,0,6.646,6.646,6.743,6.743,0,0,0,4.306-1.591,42.915,42.915,0,0,0-5.991-11.42A6.523,6.523,0,0,0,376.385,233.412Zm-67.956,9.173c-.094.281-.094.655-.187.936v.468a4.577,4.577,0,1,0,.187-1.4Zm60,40.53a4.212,4.212,0,1,0-4.212-4.212A4.195,4.195,0,0,0,368.429,283.115Zm42.215-9.641a7.071,7.071,0,0,0-7.02-7.02,10.312,10.312,0,0,0-1.685.187v13.573a10.312,10.312,0,0,0,1.685.187A6.817,6.817,0,0,0,410.644,273.474Zm-36.6-68.05a42.527,42.527,0,0,1,6.084,4.306A8.12,8.12,0,0,0,374.045,205.424Zm1.5,58.221a2.153,2.153,0,1,0-2.153,2.153A2.118,2.118,0,0,0,375.543,263.646Zm-10.109-35.195a2.816,2.816,0,0,0,2.808,2.808,2.758,2.758,0,0,0,2.808-2.808,2.808,2.808,0,1,0-5.616,0Zm12.917,23.775a3.744,3.744,0,1,0-3.744-3.744A3.755,3.755,0,0,0,378.351,252.226ZM408.4,214.317a6.178,6.178,0,1,0-6.178-6.178A6.3,6.3,0,0,0,408.4,214.317ZM270.332,230.042a4.4,4.4,0,1,0-4.4-4.4A4.394,4.394,0,0,0,270.332,230.042Zm-6.739,41.186a8.075,8.075,0,0,0-.749-3.37,51.468,51.468,0,0,1-4.68,10.952A8.079,8.079,0,0,0,263.593,271.228Zm29.017-65.242a2.153,2.153,0,1,0-2.153-2.153A2.118,2.118,0,0,0,292.61,205.986Zm-14.883,46.989a3.557,3.557,0,1,0-3.557-3.557A3.617,3.617,0,0,0,277.727,252.975Zm4.961-14.041a4.694,4.694,0,0,0,4.68-4.68,4.68,4.68,0,1,0-4.68,4.68Zm4.961-16.287A3.744,3.744,0,1,0,283.9,218.9,3.755,3.755,0,0,0,287.649,222.647ZM265,248.107h.562a7.3,7.3,0,1,0-3.463-13.76A59.143,59.143,0,0,1,265,248.107Zm-75.164-24.431a7.27,7.27,0,0,0,6.552-10.484,38.687,38.687,0,0,0-12.356,7.488A7.31,7.31,0,0,0,189.833,223.677Zm19.844-9.735a7.776,7.776,0,0,0,6.084-2.9,50.935,50.935,0,0,0-5.335-.281,38.989,38.989,0,0,0-6.646.562A8.063,8.063,0,0,0,209.677,213.942Zm-36.318,27.52a8.606,8.606,0,0,0-.936-3.838,44.3,44.3,0,0,0-2.434,10.671A8.694,8.694,0,0,0,173.359,241.462Zm-18.066,87.987a5.493,5.493,0,0,0,2.153-.374V315.221a7.974,7.974,0,0,0-2.153-.374,7.3,7.3,0,0,0,0,14.6Zm60-43.713a5.833,5.833,0,0,0-5.8,5.8,5.461,5.461,0,0,0,.562,2.434h.468A42.343,42.343,0,0,0,221,292.756a5.336,5.336,0,0,0,.094-1.217A5.833,5.833,0,0,0,215.293,285.736Zm20.125.655a42.619,42.619,0,0,0,5.429-4.587v-.562A5.133,5.133,0,0,0,235.7,276.1a5.194,5.194,0,0,0-5.148,5.148A5.072,5.072,0,0,0,235.418,286.391Zm162.4-102.309a4.025,4.025,0,1,0,4.025,4.025A4,4,0,0,0,397.821,184.083Zm-35.008,15.351a5.991,5.991,0,1,0-5.991-5.991A6.033,6.033,0,0,0,362.813,199.434Zm30.234-4.119a7.85,7.85,0,0,0-7.863,7.863,7.63,7.63,0,0,0,3,6.178h0a8.878,8.878,0,0,0-5.9,2.246,38.307,38.307,0,0,1,6.365,7.863h.374V201.586H400.91A8.125,8.125,0,0,0,393.047,195.315Zm-15.913,8.705a5.616,5.616,0,1,0-5.616-5.616A5.516,5.516,0,0,0,377.134,204.02Zm31.451,48.112a6.271,6.271,0,1,0,6.271,6.271A6.272,6.272,0,0,0,408.585,252.132Zm-.562-11.888a8.339,8.339,0,0,0-4.493-7.488c.281,0-.374-1.778,0-1.778a7.769,7.769,0,0,0,0-15.538,8.192,8.192,0,0,0-1.5.187l.936,32.48A8.859,8.859,0,0,0,408.023,240.245Zm5.335-44.743a2.621,2.621,0,1,0-2.621-2.621A2.616,2.616,0,0,0,413.359,195.5ZM307.493,216.095A5.337,5.337,0,0,0,308.71,216a59.142,59.142,0,0,1,5.616-5.242,10.361,10.361,0,0,0,.187-1.778,7.114,7.114,0,1,0-14.228,0A7.252,7.252,0,0,0,307.493,216.095Zm4.961-18.721a3.744,3.744,0,1,0-3.744-3.744A3.755,3.755,0,0,0,312.454,197.374Zm11.045,7.488a59.719,59.719,0,0,1,11.045-4.119,7.979,7.979,0,0,0,.281-2.153,7.395,7.395,0,1,0-14.789,0A7.478,7.478,0,0,0,323.5,204.863Zm24.15-11.045a5.335,5.335,0,1,0,0-10.671,5.333,5.333,0,0,0-5.335,5.335A5.274,5.274,0,0,0,347.649,193.817Zm-49.8,36.88h-.094a8.549,8.549,0,0,0-8.518,8.518,8.378,8.378,0,0,0,3.838,7.114H292.8a8.05,8.05,0,0,0,0,16.1,11.784,11.784,0,0,0,2.527-.374,57.508,57.508,0,0,1-.936-9.922,53.869,53.869,0,0,1,13.2-35.008,8.188,8.188,0,0,0-4.867-1.591,8.349,8.349,0,0,0-8.331,8.331A8.253,8.253,0,0,0,297.852,230.7Zm51.669-31.638a8.006,8.006,0,0,0-14.134,1.591,58.777,58.777,0,0,1,13.666-1.591C349.147,198.966,349.334,199.059,349.521,199.059Zm-16.942-12.917a2.616,2.616,0,0,0,2.621-2.621,2.679,2.679,0,0,0-2.621-2.621,2.621,2.621,0,1,0,0,5.242Zm56.349,104.087v-4.774h-.374a42.636,42.636,0,0,1-5.335,6.552h.562A7.663,7.663,0,0,0,388.928,290.229ZM595.512,226.3a4.774,4.774,0,1,0-4.774,4.774A4.794,4.794,0,0,0,595.512,226.3Zm-34.633,48.58a8.246,8.246,0,0,0,3.089-.562l-7.769-11.7-3.37,5.148A8.1,8.1,0,0,0,560.878,274.878Zm27.8-33.7a3.016,3.016,0,0,0-3-3,2.957,2.957,0,0,0-3,3,3.016,3.016,0,0,0,3,3A2.957,2.957,0,0,0,588.679,241.181ZM560.5,221.243a4.587,4.587,0,1,0-4.587-4.587A4.594,4.594,0,0,0,560.5,221.243Zm8.331,37.816a8.013,8.013,0,0,0,4.867-7.395c0-3.183.281-5.9-2.34-7.207a4.944,4.944,0,0,0,1.217.094,8.149,8.149,0,0,0,8.143-8.144,7.185,7.185,0,0,0-1.217-4.212l-15.538,19.47ZM583.811,271.7a7.91,7.91,0,0,0-7.863-7.863,8.075,8.075,0,0,0-3.37.749l8.705,12.917A8.3,8.3,0,0,0,583.811,271.7Zm-3-19.1a4.025,4.025,0,1,0,4.025,4.025A4.055,4.055,0,0,0,580.816,252.6Zm-5.242-40.25,7.3-10.671h3.931a7.849,7.849,0,0,0-14.228,4.587A7.717,7.717,0,0,0,575.574,212.351Zm9.735-16.474a4.774,4.774,0,1,0-4.774-4.774A4.734,4.734,0,0,0,585.309,195.877Zm-20.031,8.237a2.808,2.808,0,1,0-2.808-2.808A2.816,2.816,0,0,0,565.278,204.114Zm30.889,72.449a5.055,5.055,0,1,0-5.055,5.055A5.034,5.034,0,0,0,596.167,276.563Zm-1.778,15.164a8.15,8.15,0,0,0-8.144-8.144H585.4l8.05,11.888A8.209,8.209,0,0,0,594.388,291.727Zm7.395-80.5a6.278,6.278,0,0,0-5.429-6.271L589.8,214.41a6.4,6.4,0,0,0,11.981-3.183ZM583.9,222.834l-4.025,5.8A8.683,8.683,0,0,0,583.9,222.834Zm-54.384,19a5.9,5.9,0,1,0,11.794,0,2.592,2.592,0,0,0-.094-.842l-3.089-4.4a5.718,5.718,0,0,0-2.808-.749A6,6,0,0,0,529.521,241.836Zm1.685,30.234a5.523,5.523,0,1,0-5.523,5.523A5.474,5.474,0,0,0,531.206,272.07ZM534.669,257a4.025,4.025,0,1,0-4.025,4.025A3.938,3.938,0,0,0,534.669,257Zm8.237,35.2a7.116,7.116,0,0,0-2.621-5.523l-7.769,11.7a8.092,8.092,0,0,0,3.276.842A6.973,6.973,0,0,0,542.906,292.195ZM408.679,243.24a4.635,4.635,0,0,0,4.68,4.68,4.694,4.694,0,0,0,4.68-4.68,4.635,4.635,0,0,0-4.68-4.68A4.578,4.578,0,0,0,408.679,243.24Zm191.7-41.466a5.429,5.429,0,1,0-5.429-5.429A5.557,5.557,0,0,0,600.379,201.774ZM532.8,275.065l3.183-4.774A8.864,8.864,0,0,0,532.8,275.065Zm-10.3-38.284a2.153,2.153,0,1,0-2.153,2.153A2.241,2.241,0,0,0,522.5,236.781Zm44.93-15.351a6.98,6.98,0,0,0,.374,2.434l7.3-10.671A8.142,8.142,0,0,0,567.431,221.43Zm-24.8,21.529a8.444,8.444,0,0,0-.842,3.744,9.154,9.154,0,0,0,3.463,7.02,8.058,8.058,0,0,0-6.271,12.449l9.828-14.6Zm-29.017,44.275a7.015,7.015,0,0,0,6.271,7.02l7.02-10.39a7.165,7.165,0,0,0-6.178-3.651A7.091,7.091,0,0,0,513.609,287.234Zm18.44-59.438a8.118,8.118,0,0,0,4.306,6.178Zm-13.385-6.178a6.671,6.671,0,0,0,6.646,6.646,6.56,6.56,0,0,0,5.242-2.621l-7.208-10.39A6.658,6.658,0,0,0,518.663,221.618Zm86.3,59.719a1.217,1.217,0,1,0,1.217-1.217A1.239,1.239,0,0,0,604.966,281.337ZM467.743,264.114a4.867,4.867,0,1,0-4.867,4.867A4.894,4.894,0,0,0,467.743,264.114Zm-11.513,21.342a8.191,8.191,0,0,0,1.5.187,6.459,6.459,0,0,0,0-12.917,7.277,7.277,0,0,0-1.5.187Zm13.76-68.144A25.285,25.285,0,0,0,464,222.179,8.979,8.979,0,0,0,469.989,217.312Zm-7.207,6.178a31.848,31.848,0,0,0-5.8,13.2h.374a7.744,7.744,0,0,0,5.429-13.2Zm-19.563,13.573a6.084,6.084,0,1,0,0,4.119ZM442.47,281.8h.749v-15.07h-.749a7.535,7.535,0,1,0,0,15.07Zm106.053-54.1c0-.374.093-.655.093-1.03a8.209,8.209,0,0,0-7.675-8.237L556.292,240.9l.374-.468a9.916,9.916,0,0,0-1.123-.936h.093a10.37,10.37,0,0,0,1.779-.187l6.084-8.986a7.886,7.886,0,0,0-7.863-6.739A8.184,8.184,0,0,0,548.523,227.7ZM432.36,208.045a4.306,4.306,0,1,0,0-8.612,4.306,4.306,0,0,0,0,8.612ZM427.4,221.056a1.966,1.966,0,1,0-1.966-1.966A1.918,1.918,0,0,0,427.4,221.056Zm-8.892,8.8a1.685,1.685,0,1,0-1.685-1.685A1.622,1.622,0,0,0,418.507,229.855Zm18.44-38.1a3,3,0,1,0-3-3A3.016,3.016,0,0,0,436.947,191.758Zm15.351-3.276a5.242,5.242,0,1,0,5.242,5.242A5.233,5.233,0,0,0,452.3,188.482Zm-9.08,13.1h8.518a8.5,8.5,0,1,0-8.518,14.7Zm-10.764,47.831a4.867,4.867,0,1,0,4.867,4.867A4.834,4.834,0,0,0,432.454,249.418Zm10.764-32.668c-.281,0-.562-.094-.936-.094a7.3,7.3,0,1,0,0,14.6,3.511,3.511,0,0,0,.936-.094Zm92.948-5.242a7.656,7.656,0,0,0,1.778-4.961,7.91,7.91,0,0,0-7.863-7.863,7.775,7.775,0,0,0-6.084,2.9h5.429Zm-21.154-3.276a6.454,6.454,0,0,0,3-.749l-4.119-5.9h7.769a6.646,6.646,0,1,0-6.646,6.646Zm4.867-18.44a3.37,3.37,0,1,0-3.37-3.37A3.416,3.416,0,0,0,519.88,189.792Zm15.164,5.148a3.37,3.37,0,1,0-3.37-3.37A3.356,3.356,0,0,0,535.044,194.941Zm10.3,21.9A5.242,5.242,0,1,0,540.1,211.6,5.233,5.233,0,0,0,545.34,216.844Zm-35.288,2.9a3,3,0,1,0-3-3A2.957,2.957,0,0,0,510.052,219.746Zm-66.833,32.012a8.5,8.5,0,0,0,0,14.789Zm21.248-46.24a9.231,9.231,0,0,0-2.247-.281,8.268,8.268,0,0,0-5.9,2.434v8.705h.374A26.418,26.418,0,0,1,464.467,205.518ZM456.229,251.1a7.905,7.905,0,0,0,.562-13.76,36.055,36.055,0,0,0-.562,6.459Zm43.807-51.669a2.621,2.621,0,1,0-2.621-2.621A2.506,2.506,0,0,0,500.036,199.434Zm-27.707-14.509a1.5,1.5,0,1,0-1.5-1.5A1.479,1.479,0,0,0,472.329,184.925ZM465.4,204.769a27.129,27.129,0,0,1,7.956-3.838,6.555,6.555,0,1,0-7.956,3.838Zm104.836-17.317a1.081,1.081,0,0,0,1.123-1.123,1.123,1.123,0,1,0-1.123,1.123ZM388.928,303.334v-4.68a7.242,7.242,0,0,0-2.246,5.055,7.02,7.02,0,0,0,14.041,0v-.468H388.928Zm20.125,1.123a4.212,4.212,0,1,0,4.212,4.212A4.195,4.195,0,0,0,409.053,304.457Zm-7.114-23.214v15.351a8.314,8.314,0,0,0,5.148-7.676A8.175,8.175,0,0,0,401.939,281.243Zm-13.011,35.289a2.378,2.378,0,0,0-2.34,2.34,2.342,2.342,0,0,0,4.68,0A2.443,2.443,0,0,0,388.928,316.532Zm-6.459-23.775a45.356,45.356,0,0,1-11.232,7.863,7.6,7.6,0,0,0,7.3,5.991,7.51,7.51,0,0,0,7.488-7.488A7.39,7.39,0,0,0,382.47,292.756Zm-33.51,12.917c-16.849,0-31.17-6.74-40.9-17.5a8.08,8.08,0,0,0-2.808,6.271,8.349,8.349,0,0,0,8.331,8.331,8.2,8.2,0,0,0,6.552-3.276,8.319,8.319,0,0,0,15.07,4.587v.094a8.349,8.349,0,0,0,8.331,8.331,8.255,8.255,0,0,0,8.143-6.927C350.738,305.674,349.8,305.674,348.96,305.674Zm24.9,5.148a3.276,3.276,0,1,0,3.276,3.276A3.317,3.317,0,0,0,373.858,310.822ZM362.532,303.9a50.326,50.326,0,0,1-9.828,1.685,6.326,6.326,0,0,0-1.123,3.744,6.833,6.833,0,0,0,13.666,0A6.738,6.738,0,0,0,362.532,303.9Zm70.3-3.744a4.4,4.4,0,1,0,4.4,4.4A4.394,4.394,0,0,0,432.828,300.151Zm-4.867,18.066a1.31,1.31,0,1,0,1.311,1.31A1.28,1.28,0,0,0,427.961,318.217Zm15.257-25.179v-6.927a6.459,6.459,0,1,0,0,6.927ZM240.941,313.256a3.276,3.276,0,1,0,0,6.552,3.256,3.256,0,0,0,3.276-3.276A3.381,3.381,0,0,0,240.941,313.256Zm172.886-23.869a4.212,4.212,0,1,0,4.212,4.212A4.137,4.137,0,0,0,413.827,289.387Zm5.055-12.262a1.31,1.31,0,1,0,1.31,1.31A1.28,1.28,0,0,0,418.882,277.125Zm-158,27.052a2.153,2.153,0,1,0,2.153,2.153A2.118,2.118,0,0,0,260.878,304.176Zm4.961-17.41a4.4,4.4,0,1,0,4.4,4.4A4.394,4.394,0,0,0,265.839,286.766Zm9.454-31.076a5.194,5.194,0,0,0-5.148,5.148,5.148,5.148,0,1,0,5.148-5.148Zm-4.774,14.6a5.8,5.8,0,1,0,5.8,5.8A5.773,5.773,0,0,0,270.52,270.292Zm179.532,33.042h-4.119a6.443,6.443,0,1,0,8.518,6.084A6.35,6.35,0,0,0,450.052,303.334ZM257.228,280.494a53.312,53.312,0,0,1-11.045,12.73,8.442,8.442,0,0,0,13.1-7.114A8.462,8.462,0,0,0,257.228,280.494Zm-11.513,13.573h-.655a48.6,48.6,0,0,1-5.8,3.931,7.312,7.312,0,1,0,13.853,3.276A7.436,7.436,0,0,0,245.715,294.067Zm37.254-11.888a2.621,2.621,0,1,0,0,5.242,2.679,2.679,0,0,0,2.621-2.621A2.616,2.616,0,0,0,282.969,282.179Zm15.07.936a6.271,6.271,0,1,0,6.272,6.271A6.272,6.272,0,0,0,298.039,283.115Zm10.2,23.027a3.276,3.276,0,1,0,3.276,3.276A3.256,3.256,0,0,0,308.242,306.142Zm15.257,4.025a4.212,4.212,0,1,0,4.212,4.212A4.195,4.195,0,0,0,323.5,310.167Zm-29.2-40.9a6.271,6.271,0,1,0-6.271,6.271A6.272,6.272,0,0,0,294.295,269.262Zm44.368,46.147a3.744,3.744,0,1,0,3.744,3.744A3.755,3.755,0,0,0,338.663,315.409Zm-45.3-12.356a1.4,1.4,0,1,0,1.4,1.4A1.378,1.378,0,0,0,293.359,303.053Zm136.661-33.7a2.34,2.34,0,1,0-2.34,2.34A2.317,2.317,0,0,0,430.02,269.355Zm128.705,7.02a4.68,4.68,0,1,0,4.68,4.68A4.694,4.694,0,0,0,558.725,276.376Zm5.523,10.39a6.771,6.771,0,0,0,6.74,6.739,6.684,6.684,0,0,0,4.587-1.778l-7.3-11.045A6.7,6.7,0,0,0,564.248,286.766Zm-22.839-1.685a8.14,8.14,0,0,0,7.488-8.05,11.8,11.8,0,0,0-.374-2.621Zm24.618,14.883a2.059,2.059,0,1,0,2.059,2.059A2.078,2.078,0,0,0,566.026,299.964Zm-23.963-.562a1.591,1.591,0,1,0,1.591,1.591A1.578,1.578,0,0,0,542.064,299.4Zm-11.326,2.621a1.388,1.388,0,0,0-.655.094l-.749,1.217h-1.872a5.314,5.314,0,0,0-1.872,4.025,5.242,5.242,0,1,0,10.484,0A5.394,5.394,0,0,0,530.738,302.023Zm-11.888-6.178a7.328,7.328,0,0,0-2.9-.655,7.111,7.111,0,0,0-7.114,7.114,7.061,7.061,0,0,0,14.041,1.03h-8.986Zm97.909-94.727A1.138,1.138,0,0,0,615.637,200a1.123,1.123,0,1,0,0,2.247A1.138,1.138,0,0,0,616.76,201.118Zm-5.242,113.448a2.34,2.34,0,0,0,0,4.68,2.378,2.378,0,0,0,2.34-2.34A2.317,2.317,0,0,0,611.518,314.566Zm4.867-14.509a1.591,1.591,0,1,0,0,3.182,1.591,1.591,0,1,0,0-3.182Zm-15.07-9.36a6.072,6.072,0,0,0-6.084,6.084,4.6,4.6,0,0,0,.374,1.966l1.778,2.621a6.1,6.1,0,0,0,10.109-4.587A6.214,6.214,0,0,0,601.315,290.7Zm-5.055,15.819a5.242,5.242,0,1,0,5.242,5.242A5.233,5.233,0,0,0,596.261,306.516Zm-13.011-3.182-1.123-1.685a3.185,3.185,0,0,0-.936-.094,5.264,5.264,0,1,0,3.838,1.685H583.25Zm-82.465,7.675a1.591,1.591,0,0,0,0,3.183,1.64,1.64,0,0,0,1.591-1.591A1.578,1.578,0,0,0,500.785,311.009Zm-28.175-79.1a1.966,1.966,0,1,0,1.966,1.966A1.918,1.918,0,0,0,472.61,231.914Zm7.676-18.44a34.96,34.96,0,0,0-7.676,2.434,5.3,5.3,0,0,0-.655,2.715,5.71,5.71,0,1,0,11.42,0A5.533,5.533,0,0,0,480.286,213.474Zm2.246-17.317a7.391,7.391,0,0,0-6.552,4.025,62.83,62.83,0,0,1,9.267-1.217v11.326c2.715-1.123,3.276-3.744,3.276-6.833C488.523,199.434,486.557,196.157,482.532,196.157Zm-14.7,49.7a3,3,0,1,0,3,3A3.08,3.08,0,0,0,467.836,245.861ZM463.063,311.2a3.089,3.089,0,1,0,3.089,3.089A3.116,3.116,0,0,0,463.063,311.2Zm50.546,1.31h-.094v-.281h-.094v-.281a4.263,4.263,0,0,0-4.025-2.434v.094h-.655v.094h-.281v.094h-.281v.094a5.968,5.968,0,0,0-.655.187c-.094.094-.187.187-.187.281h-.187v.094c-.187.094-.281.187-.468.281v.187h0c-.094.094-.187.094-.281.187,0,.094-.094.281-.094.374v.094h-.094v.281h-.281v.281h-.094v.187a4.739,4.739,0,0,0-.187,1.217,3.775,3.775,0,0,0,.562,2.059v.094h.094c.094.094.187.281.281.374h0c.093.094.187.281.374.374l.094.094h0c.093.094.281.187.374.281h0a4.451,4.451,0,0,0,2.153.655h.374c.187,0,.375-.094.655-.094h.094c.187-.094.374-.094.562-.187h.094c.094-.094.187-.094.374-.187h.094c.094,0,.094,0,.094-.094h.094a.092.092,0,0,1,.093-.094c.094-.094.187-.094.281-.187h.094v-.094a.092.092,0,0,1,.093-.094l.281-.281v-.094l.187-.187c.094,0,.094-.094.187-.094V315.5h.094c0-.094.094-.187.094-.281a.092.092,0,0,1,.094-.094h.094v-.374h.094c.094-.562.094-1.123.187-1.591H513.8v-.655ZM468.023,296.5a2.8,2.8,0,0,0-2.808,2.715,2.758,2.758,0,0,0,2.808,2.808,2.816,2.816,0,0,0,2.808-2.808A2.862,2.862,0,0,0,468.023,296.5Zm-11.794-8.892v13.573a7.573,7.573,0,0,0,0-13.573Zm44.275,6.833a2.9,2.9,0,1,0,2.9,2.9A2.916,2.916,0,0,0,500.5,294.441Zm6.271-12.075a1.358,1.358,0,1,0-2.715,0,1.3,1.3,0,0,0,1.4,1.31A1.28,1.28,0,0,0,506.775,282.366Zm-13.947-60.374a1.5,1.5,0,1,0,1.5,1.5A1.478,1.478,0,0,0,492.828,221.992Zm-5.335-36.88a3.463,3.463,0,1,0,3.463,3.463A3.343,3.343,0,0,0,487.493,185.112Zm11.981,23.4a1.872,1.872,0,1,0-1.872,1.872A1.941,1.941,0,0,0,499.474,208.513ZM245.059,206.36a5.8,5.8,0,1,0-5.8-5.8A5.833,5.833,0,0,0,245.059,206.36Zm-31.544-7.3a7.588,7.588,0,0,0-3.838-1.03,8.734,8.734,0,0,0-4.119,1.123,44.985,44.985,0,0,1,4.867-.281C211.456,198.966,212.485,199.059,213.515,199.059Zm-35.1,27.707a40.733,40.733,0,0,0-4.306,6.927A8.582,8.582,0,0,0,178.414,226.766Zm90.7,29.3a8.614,8.614,0,0,0-4.119-7.3c.094,1.123.094,2.246.094,3.37a54.869,54.869,0,0,1-1.31,11.794A8.364,8.364,0,0,0,269.116,256.064ZM157.54,215.253a6.393,6.393,0,0,0-3-.655,6.927,6.927,0,0,0,0,13.853,8.2,8.2,0,0,0,3-.655Zm88.549,14.789a7.443,7.443,0,0,0-3.183,5.991,7.31,7.31,0,0,0,7.3,7.3,3.839,3.839,0,0,0,1.03-.094A43.131,43.131,0,0,0,246.089,230.042Zm3.838,20.874a4.694,4.694,0,0,0-4.68-4.68,4.68,4.68,0,0,0,0,9.36A4.578,4.578,0,0,0,249.927,250.916ZM155.668,287.14a5.8,5.8,0,1,0-5.8,5.8A5.833,5.833,0,0,0,155.668,287.14Zm74.883,1.5a7.54,7.54,0,0,0-6.271,3.276,37.481,37.481,0,0,0,7.395-3.183C231.3,288.731,230.925,288.638,230.551,288.638Zm-55.226,29.3a5.991,5.991,0,0,0,0-11.981,5.767,5.767,0,0,0-4.774,2.434V315.5A6.021,6.021,0,0,0,175.325,317.936Zm75.07-52.98a8.11,8.11,0,0,0-2.9,6.178,3.842,3.842,0,0,0,.094,1.03A44.314,44.314,0,0,0,250.395,264.956Zm-10.484-41.279a5.337,5.337,0,0,0,1.217-.094,42.175,42.175,0,0,0-9.08-7.208A7.938,7.938,0,0,0,239.911,223.677ZM157.54,265.143a7.146,7.146,0,0,0-2.527-.468,7.3,7.3,0,0,0,0,14.6,8.026,8.026,0,0,0,2.527-.468Zm-2.059-28.456a5.8,5.8,0,1,0-5.8,5.8A5.659,5.659,0,0,0,155.481,236.688Zm85.928-28.736a65.062,65.062,0,0,1,5.71,4.306A8.192,8.192,0,0,0,241.409,207.951ZM157.54,287.889a8.124,8.124,0,0,0-.936,3.931,9.342,9.342,0,0,0,.936,3.931Zm0-39.5a8.57,8.57,0,0,0-5.991,8.143,8.483,8.483,0,0,0,5.991,8.144ZM180.847,261.4a5.833,5.833,0,0,0-5.8-5.8,5.744,5.744,0,0,0-4.867,2.621,47.868,47.868,0,0,0,1.872,8.237,6.221,6.221,0,0,0,3,.842A5.977,5.977,0,0,0,180.847,261.4ZM157.54,237.062a8.522,8.522,0,0,0-1.217,4.306,8.867,8.867,0,0,0,1.217,4.4Zm31.732-5.8a4.4,4.4,0,1,0-4.4,4.4A4.394,4.394,0,0,0,189.272,231.259ZM175.886,246.61a4.025,4.025,0,1,0,8.05,0,4.025,4.025,0,0,0-8.05,0ZM157.54,298.934a8.485,8.485,0,0,0,0,16.1ZM220.067,224.8a1.31,1.31,0,1,0,1.31,1.31A1.28,1.28,0,0,0,220.067,224.8Zm10.484-9.267a42.731,42.731,0,0,0-12.917-4.212,7.282,7.282,0,0,0,7.207,6.927A7.149,7.149,0,0,0,230.551,215.533Zm13.479,50.92a3.557,3.557,0,1,0-3.557,3.557A3.555,3.555,0,0,0,244.03,266.454Zm-65.9,11.42a4.945,4.945,0,0,0,.094-1.217,8.315,8.315,0,0,0-5.148-7.675A35.951,35.951,0,0,0,178.133,277.873Zm9.548,9.08a5.792,5.792,0,1,0-7.956-7.02A40.75,40.75,0,0,0,187.68,286.953Zm47.27-52.231a3.557,3.557,0,1,0-3.557-3.557A3.555,3.555,0,0,0,234.95,234.722Zm-33.136-35.008a7.3,7.3,0,0,0-14.509,1.123,6.924,6.924,0,0,0,.842,3.37A49.624,49.624,0,0,1,201.815,199.714ZM170.551,320v13.853a6.982,6.982,0,0,0,6.646-6.927A7.118,7.118,0,0,0,170.551,320Zm-9.922,33.791a3.557,3.557,0,1,0,3.557,3.557A3.555,3.555,0,0,0,160.629,353.786ZM170.551,339H159.038a7.222,7.222,0,1,0,13.666,3.183,7.508,7.508,0,0,0-2.246-5.242V339Zm-20.218-8.05a6.271,6.271,0,1,0,6.271,6.272A6.272,6.272,0,0,0,150.332,330.947Zm-1.03-28.83a4.212,4.212,0,1,0-4.212,4.212A4.195,4.195,0,0,0,149.3,302.117Zm-3.931,47.644a2.808,2.808,0,1,0,2.808,2.808A2.758,2.758,0,0,0,145.371,349.761ZM174.95,290.6a8.674,8.674,0,0,0-1.31,1.31v-.094a8.664,8.664,0,0,0-1.03-4.119,13.376,13.376,0,0,1-1.31-1.872l-.468-.468h-.187v12.917c.468-.374.936-.936,1.4-1.4a8.051,8.051,0,0,0,15.445,3.089A41.832,41.832,0,0,1,174.95,290.6Zm35.569,15.07a51.225,51.225,0,0,1-22.839-5.429,7.085,7.085,0,0,0-.094,1.4,8.009,8.009,0,0,0,14.6,4.587v.187a8.05,8.05,0,1,0,16.1,0,4.944,4.944,0,0,0-.094-1.217A52.023,52.023,0,0,1,210.52,305.674Zm-29.766,38.658a2.808,2.808,0,1,0,2.808,2.808A2.816,2.816,0,0,0,180.754,344.332Zm44.836-39.314a6.739,6.739,0,1,0,6.739,6.74A6.711,6.711,0,0,0,225.59,305.019Zm-20.031,13.573a3.276,3.276,0,1,0,3.276,3.276A3.317,3.317,0,0,0,205.559,318.591Zm-65.242-2.246a1.239,1.239,0,0,0-1.217,1.217,1.18,1.18,0,0,0,1.217,1.217,1.221,1.221,0,0,0,0-2.434Zm50.078-3.557a3.931,3.931,0,1,0,3.931,3.931A4.018,4.018,0,0,0,190.395,312.788ZM144.623,255.5a3.931,3.931,0,1,0-3.931-3.931A3.955,3.955,0,0,0,144.623,255.5Zm70.016-58.69a5.8,5.8,0,1,0-5.8-5.8A5.833,5.833,0,0,0,214.638,196.813Zm45.585,12.262a3.557,3.557,0,1,0-3.557-3.557A3.555,3.555,0,0,0,260.223,209.075ZM199.662,188.95a3.089,3.089,0,1,0-3.089-3.089A3.056,3.056,0,0,0,199.662,188.95ZM225.5,200.931a52.444,52.444,0,0,1,5.055,1.591,6.591,6.591,0,0,0,5.9-6.552,6.646,6.646,0,0,0-13.292,0A7.326,7.326,0,0,0,225.5,200.931Zm-29.485,85.835a4.4,4.4,0,1,0,4.4-4.4A4.519,4.519,0,0,0,196.011,286.766Zm63-59.158a7.761,7.761,0,0,0,4.025-6.833,7.813,7.813,0,0,0-13.2-5.71A52.734,52.734,0,0,1,259.006,227.608Zm-31.919,75.725a8.075,8.075,0,0,0,3.37.749,7.8,7.8,0,0,0,7.3-5.242A49.37,49.37,0,0,1,227.088,303.334ZM149.3,188.014a1.685,1.685,0,1,0-1.685-1.685A1.678,1.678,0,0,0,149.3,188.014Zm-5.055,16.942a3.377,3.377,0,0,0,3.37-3.463,3.417,3.417,0,1,0-6.833,0A3.516,3.516,0,0,0,144.248,204.956Zm35.195-4.306a4.4,4.4,0,1,0-4.4-4.4A4.519,4.519,0,0,0,179.443,200.65Zm-21.9,13.385V201.586h8.144a7.761,7.761,0,0,0-6.365-3.183,7.924,7.924,0,0,0-1.778,15.632Zm6.927-18.346a4.4,4.4,0,1,0-4.4-4.4A4.394,4.394,0,0,0,164.467,195.689Zm17.317,12.543a7.945,7.945,0,0,0-7.3-4.774,7.454,7.454,0,0,0-4.025,1.123v14.977h.374A46.994,46.994,0,0,1,181.783,208.232Z" transform="translate(3816.9 -529.9)"></path>
    <path id="Path_132" data-name="Path 132" class="parx-logo-cls2" d="M149.823,284.948a3.276,3.276,0,1,0-3.276-3.276A3.316,3.316,0,0,0,149.823,284.948Zm78.721-85.928a3.463,3.463,0,1,0-3.463-3.463A3.455,3.455,0,0,0,228.543,199.02ZM149.355,321.266a2.246,2.246,0,1,0-2.247,2.246A2.163,2.163,0,0,0,149.355,321.266Zm2.714-69.922a3.37,3.37,0,1,0-3.37,3.37A3.356,3.356,0,0,0,152.069,251.344Zm-5.335,41.841a2.246,2.246,0,1,0-2.246-2.246A2.278,2.278,0,0,0,146.734,293.185Zm.562,57.66a1.03,1.03,0,1,0,1.03,1.03A1.039,1.039,0,0,0,147.3,350.845Zm429.079-92.012a2.059,2.059,0,1,0,2.059-2.059A2.018,2.018,0,0,0,576.375,258.832ZM174.534,326.976a3.256,3.256,0,0,0-3.276,3.276,3.276,3.276,0,0,0,6.552,0A3.256,3.256,0,0,0,174.534,326.976Zm3.183-7.956a2.246,2.246,0,1,0,2.246,2.246A2.217,2.217,0,0,0,177.717,319.02Zm-27.426,20.406a3.276,3.276,0,1,0,3.276,3.276A3.2,3.2,0,0,0,150.291,339.425Zm18.346,6.178a3.116,3.116,0,0,0-3.089,3.089,3.056,3.056,0,0,0,3.089,3.089,3.089,3.089,0,1,0,0-6.178Zm9.08,5.055a1.03,1.03,0,1,0,1.03,1.03A1.039,1.039,0,0,0,177.717,350.658ZM146.64,258.364a2.059,2.059,0,1,0,2.059,2.059A2.018,2.018,0,0,0,146.64,258.364Zm42.122-63.838a1.4,1.4,0,1,0-1.4-1.4A1.44,1.44,0,0,0,188.762,194.527Zm-8.237,116.63a.864.864,0,0,0-.842.936.923.923,0,0,0,.842.936.938.938,0,0,0,.936-.936A1,1,0,0,0,180.525,311.157Zm-2.059-110.265a1.872,1.872,0,1,0-1.872-1.872A1.941,1.941,0,0,0,178.465,200.892Zm31.732-9.173a2.059,2.059,0,1,0-2.059-2.059A2.078,2.078,0,0,0,210.2,191.719Zm-12.356,7.956a3.651,3.651,0,1,0-3.651-3.651A3.717,3.717,0,0,0,197.841,199.675Zm-30.234-.562a2.957,2.957,0,0,0,3-3,3.016,3.016,0,0,0-3-3,3,3,0,1,0,0,5.991Zm-21.248,32.761a2.059,2.059,0,1,0-2.059-2.059A2.078,2.078,0,0,0,146.359,231.875Zm-.094-31.076a1.407,1.407,0,1,0,0-2.808,1.378,1.378,0,0,0-1.4,1.4A1.44,1.44,0,0,0,146.266,200.8Zm73.1-4.961a3.056,3.056,0,0,0,3.089-3.089,3.089,3.089,0,0,0-6.178,0A3,3,0,0,0,219.37,195.837Zm-70.016,21.529a3.37,3.37,0,1,0,3.37,3.37A3.356,3.356,0,0,0,149.355,217.366Zm2.808-1.685a4.119,4.119,0,1,0,0-8.237,4.155,4.155,0,0,0-4.119,4.119A4.1,4.1,0,0,0,152.163,215.681Zm6.271-20.218A2.434,2.434,0,1,0,156,193.029,2.478,2.478,0,0,0,158.434,195.463Zm-5.055,116.63a3.276,3.276,0,1,0-6.552,0,3.276,3.276,0,0,0,6.552,0Zm78.814-35.569a1.591,1.591,0,1,0,1.591,1.591A1.578,1.578,0,0,0,232.194,276.523Zm9.828-26.958a.923.923,0,0,0-.936.842.864.864,0,0,0,.936.842.923.923,0,0,0,.936-.842A1,1,0,0,0,242.022,249.566Zm-13.2-24.8a1.578,1.578,0,0,0-1.591,1.591,1.591,1.591,0,1,0,3.183,0A1.522,1.522,0,0,0,228.824,224.761Zm5.8,4.306A3.37,3.37,0,1,0,238,225.7,3.481,3.481,0,0,0,234.628,229.066ZM220.119,283.45a.864.864,0,0,0-.842.936.839.839,0,0,0,.842.842.923.923,0,0,0,.936-.842A1,1,0,0,0,220.119,283.45ZM244.082,244.7a3.37,3.37,0,1,0-3.37-3.37A3.356,3.356,0,0,0,244.082,244.7Zm-9.36-7.114a.923.923,0,0,0-.936.842.864.864,0,0,0,.936.842.847.847,0,1,0,0-1.685Zm-15.07-13.666a.655.655,0,1,0-.655-.655A.8.8,0,0,0,219.651,223.918Zm-36.318,46.615a1.591,1.591,0,1,0,0,3.183,1.64,1.64,0,0,0,1.591-1.591A1.522,1.522,0,0,0,183.333,270.533Zm-.374-27.988a.864.864,0,0,0,.842-.936.923.923,0,0,0-.842-.936.938.938,0,0,0-.936.936A1.091,1.091,0,0,0,182.958,242.545Zm-2.9,7.769a.655.655,0,1,0,.655.655A.788.788,0,0,0,180.057,250.314Zm-2.9,7.207a2.527,2.527,0,0,0,0,5.055,2.529,2.529,0,1,0,0-5.055Zm94.54,22.278a.864.864,0,0,0-.842.936.923.923,0,0,0,.842.936.938.938,0,0,0,.936-.936A1,1,0,0,0,271.695,279.8Zm-30.047,30.234a1.64,1.64,0,0,0-1.591,1.591,1.591,1.591,0,0,0,3.183,0A1.522,1.522,0,0,0,241.648,310.034Zm-21.435,1.872a2.9,2.9,0,1,0,2.9,2.9A2.979,2.979,0,0,0,220.213,311.906Zm12.262-7.3a3.8,3.8,0,0,0-3.838,3.838,3.855,3.855,0,0,0,3.838,3.838,3.838,3.838,0,1,0,0-7.676Zm-2.9,12.543a.936.936,0,1,0,0,1.872.864.864,0,0,0,.842-.936A.774.774,0,0,0,229.573,317.148Zm-30.7-.094a.864.864,0,0,0-.842.936.839.839,0,0,0,.842.842.923.923,0,0,0,.936-.842A.938.938,0,0,0,198.871,317.054Zm12.075-9.173a3.838,3.838,0,1,0,3.838,3.838A3.8,3.8,0,0,0,210.946,307.881Zm48.861-24.524a3.744,3.744,0,1,0,3.744,3.744A3.755,3.755,0,0,0,259.807,283.357Zm-15.164,15.07a3.838,3.838,0,1,0,3.838,3.838A3.8,3.8,0,0,0,244.643,298.427Zm-54.758,15.257a1.339,1.339,0,0,0-1.31,1.31,1.31,1.31,0,1,0,2.621,0A1.407,1.407,0,0,0,189.885,313.684ZM268.7,289.347a.936.936,0,1,0,.936.936A.938.938,0,0,0,268.7,289.347Zm-14.977,15.164a.923.923,0,0,0-.936.842.864.864,0,0,0,.936.842.839.839,0,0,0,.842-.842C254.659,304.885,254.284,304.511,253.723,304.511Zm3.089-11.139a2.621,2.621,0,1,0,2.621,2.621A2.679,2.679,0,0,0,256.812,293.372Zm150.7-93.323a1.872,1.872,0,1,0-1.872-1.872A1.878,1.878,0,0,0,407.514,200.049Zm66.833-7.114a1.5,1.5,0,1,0-1.5-1.5A1.478,1.478,0,0,0,474.347,192.935Zm-11.794,7.582a2.714,2.714,0,1,0-2.714-2.715A2.6,2.6,0,0,0,462.553,200.517Zm20.874-3.089a3,3,0,1,0-3-3A2.957,2.957,0,0,0,483.426,197.428Zm-30.047.094a2.714,2.714,0,1,0-2.714-2.715A2.717,2.717,0,0,0,453.379,197.522Zm60.842,22.559a1.591,1.591,0,1,0-1.591-1.591A1.578,1.578,0,0,0,514.222,220.081Zm-10.671-28.643a.936.936,0,1,0-.936-.936A1.091,1.091,0,0,0,503.551,191.438Zm-58.783,1.217a.864.864,0,0,0,.842-.936.839.839,0,0,0-.842-.842.923.923,0,0,0-.936.842A.884.884,0,0,0,444.768,192.655Zm66.365,8.144a2.621,2.621,0,1,0-2.621-2.621A2.506,2.506,0,0,0,511.133,200.8ZM442.9,269.222a3.855,3.855,0,0,0-3.838-3.838,3.8,3.8,0,0,0-3.838,3.838,3.855,3.855,0,0,0,3.838,3.838A3.8,3.8,0,0,0,442.9,269.222Zm-9.454,9.08a2.758,2.758,0,0,0,2.808,2.808,2.816,2.816,0,0,0,2.808-2.808,2.808,2.808,0,0,0-5.616,0Zm2.434-56.537a2.957,2.957,0,0,0,3-3,3.016,3.016,0,0,0-3-3,3,3,0,0,0,0,5.991Zm2.9-8.424a3.557,3.557,0,1,0-3.557-3.557A3.555,3.555,0,0,0,438.777,213.341Zm101.466-14.509a.839.839,0,0,0,.842-.842.923.923,0,0,0-.842-.936.938.938,0,0,0-.936.936A.923.923,0,0,0,540.244,198.832Zm26.3,8.8a1.123,1.123,0,1,0-1.123-1.123A1.138,1.138,0,0,0,566.546,207.631ZM589.76,196.96a2.246,2.246,0,1,0-2.247-2.246A2.278,2.278,0,0,0,589.76,196.96Zm-20.312,1.4a.764.764,0,0,0,.749-.842.825.825,0,0,0-.749-.842.839.839,0,0,0-.843.842A.786.786,0,0,0,569.448,198.364Zm8.705,4.306a3.37,3.37,0,1,0-3.37-3.37A3.48,3.48,0,0,0,578.153,202.67Zm26.4,7.582a1.217,1.217,0,1,0-1.217-1.217A1.239,1.239,0,0,0,604.549,210.252Zm-6.084-10.016a2.715,2.715,0,1,0-2.714-2.714A2.716,2.716,0,0,0,598.465,200.237Zm-37.629,26.958a3.089,3.089,0,1,0-3.089-3.089A3.137,3.137,0,0,0,560.836,227.194ZM438.871,248.536a2.808,2.808,0,1,0-2.808,2.808A2.758,2.758,0,0,0,438.871,248.536Zm107.176-37.629a1.44,1.44,0,0,0,1.4-1.4,1.378,1.378,0,0,0-1.4-1.4,1.4,1.4,0,0,0,0,2.808ZM531.538,196.96a1.872,1.872,0,1,0-1.872-1.872A1.878,1.878,0,0,0,531.538,196.96Zm32.106,20.5a2.217,2.217,0,0,0,2.247-2.247,2.247,2.247,0,1,0-2.247,2.247Zm-11.607,5.429a1.966,1.966,0,1,0-1.966-1.966A2.04,2.04,0,0,0,552.038,222.889ZM360.525,194.9a2.153,2.153,0,1,0-2.153-2.153A2.118,2.118,0,0,0,360.525,194.9Zm-64.493,16.755a.842.842,0,1,0,0-1.685.923.923,0,0,0-.936.842A.864.864,0,0,0,296.032,211.656Zm35.008-16.568a2.153,2.153,0,1,0-2.153-2.153A2.118,2.118,0,0,0,331.039,195.088ZM304.83,217.553a3.838,3.838,0,1,0-3.838-3.838A3.8,3.8,0,0,0,304.83,217.553ZM290.415,230.47a1.919,1.919,0,0,0,1.966-1.966,1.966,1.966,0,0,0-3.931,0A1.92,1.92,0,0,0,290.415,230.47Zm29.111-28.924a2.559,2.559,0,0,0,2.621-2.621,2.621,2.621,0,1,0-5.242,0A2.679,2.679,0,0,0,319.526,201.547Zm-11.794,5.523a2.153,2.153,0,1,0-2.153-2.153A2.315,2.315,0,0,0,307.732,207.07Zm-14.415,13.947a1.31,1.31,0,0,0,0-2.621,1.36,1.36,0,0,0-1.4,1.31A1.426,1.426,0,0,0,293.317,221.017ZM246.89,204.168a2.34,2.34,0,1,0-2.34-2.34A2.378,2.378,0,0,0,246.89,204.168Zm9.267,1.966a1.31,1.31,0,1,0-1.31-1.31A1.28,1.28,0,0,0,256.156,206.134Zm6.084,13.1a2.34,2.34,0,1,0-2.34-2.34A2.443,2.443,0,0,0,262.241,219.238Zm25.273,19.844a1.872,1.872,0,1,0-1.872-1.872A1.878,1.878,0,0,0,287.514,239.082Zm-19-7.769a2.34,2.34,0,1,0-2.34-2.34A2.378,2.378,0,0,0,268.512,231.313Zm71.513-31.825a3.744,3.744,0,1,0-3.744-3.744A3.7,3.7,0,0,0,340.025,199.488Zm67.769,25.46a2.808,2.808,0,1,0,2.808,2.808A2.878,2.878,0,0,0,407.794,224.948Zm2.715-4.867a1.4,1.4,0,1,0-1.4-1.4A1.378,1.378,0,0,0,410.509,220.081ZM186.047,231.219a1.4,1.4,0,1,0,1.4,1.4A1.378,1.378,0,0,0,186.047,231.219Zm246.927-2.153a1.4,1.4,0,0,0,0-2.808,1.4,1.4,0,0,0,0,2.808Zm-34.446-30.7a2.808,2.808,0,1,0-2.808-2.808A2.816,2.816,0,0,0,398.528,198.364Zm34.259.281a.923.923,0,0,0,.936-.842.864.864,0,0,0-.936-.842.923.923,0,0,0-.936.842A1,1,0,0,0,432.787,198.645Zm-81.061-7.395a1.4,1.4,0,1,0-1.4-1.4A1.44,1.44,0,0,0,351.726,191.251ZM237.529,202.3a3.463,3.463,0,1,0,0-6.927,3.463,3.463,0,1,0,0,6.927Zm152.106-8.518a1.217,1.217,0,1,0-1.217-1.217A1.239,1.239,0,0,0,389.635,193.778Zm52.886,45.679a3.651,3.651,0,1,0-7.3,0,3.651,3.651,0,1,0,7.3,0Zm-64.4-39.407a1.4,1.4,0,1,0-1.4-1.4A1.44,1.44,0,0,0,378.122,200.049Zm-8.8-2.246a2.153,2.153,0,1,0-2.153-2.153A2.315,2.315,0,0,0,369.323,197.8ZM153.1,337.553a4.166,4.166,0,1,0-4.212-4.119A4.3,4.3,0,0,0,153.1,337.553ZM474.628,218.489a3,3,0,1,0,3,3A3.079,3.079,0,0,0,474.628,218.489Zm11.232-5.055c-.281,0,0-1.03-.281-.936V199.02H485.3c-.655.094-1.4.094-2.059.187a5.172,5.172,0,0,0-2.715-.842,4.874,4.874,0,0,0-3.744,1.685c-.281.094-.655.094-.936.187a4.34,4.34,0,0,0-4.4-4.119,4.394,4.394,0,0,0-4.4,4.4,4.53,4.53,0,0,0,.936,2.714,25.332,25.332,0,0,0-3.838,2.621,4.635,4.635,0,0,0-4.587-3.931,4.39,4.39,0,0,0-2.9,1.03v-1.31h-1.5a4.929,4.929,0,0,0-8.986,0h-.936c.094-.281-.842-1.966-.842-2.34a3.557,3.557,0,1,0-3.557,3.557c.468,0,1.872,1.31,2.34,1.123v5.9a4.963,4.963,0,0,0-.655,2.621,6.026,6.026,0,0,0,.655,2.621V216.8a5.061,5.061,0,0,0-3.463,4.867,5.009,5.009,0,0,0,2.621,4.493h-.468a4.4,4.4,0,1,0,0,8.8,6.319,6.319,0,0,0,1.31-.187v5.055a5.553,5.553,0,0,0,0,4.867v1.591a5.32,5.32,0,0,0-3.37,4.961,5.15,5.15,0,0,0,1.966,4.119,4.648,4.648,0,0,0-4.119,4.587,4.594,4.594,0,0,0,4.587,4.587,3.184,3.184,0,0,0,.936-.094v5.616a4.764,4.764,0,0,0,0,4.119v1.966a5.406,5.406,0,0,0-3.089,4.774,5.269,5.269,0,0,0,2.621,4.587h-.281a4.4,4.4,0,0,0,0,8.8,2.062,2.062,0,0,0,.749-.094V297.4a4.028,4.028,0,1,0-3.744,5.523,4.083,4.083,0,0,0,3.744-2.527v3.183h.562a5.09,5.09,0,0,0,4.68,3.276,4.868,4.868,0,0,0,4.68-3.276h.936c-.094.374,1.31,1.966,1.31,2.34A3.655,3.655,0,0,0,459,309.566a3.577,3.577,0,0,0,3.557-3.651A3.636,3.636,0,0,0,459,302.265c-.281,0-2.059-1.217-2.247-1.123v-4.867a3.618,3.618,0,0,0,3.557,3.089,3.651,3.651,0,0,0,0-7.3,3.556,3.556,0,0,0-3.557,3.089v-.374a5.654,5.654,0,0,0,.468-2.246,6.023,6.023,0,0,0-.468-2.246v-2.34a4.931,4.931,0,0,0,0-8.612v-.562h.468a4.4,4.4,0,1,0,0-8.8h-.468v-4.212a3.522,3.522,0,1,0,3.463-3.931,3.47,3.47,0,0,0-3.463,3.182v-6.833a5.257,5.257,0,0,0,0-8.986V249.1h.281a4.587,4.587,0,0,0,0-9.173h-.094a7.228,7.228,0,0,1,.187-1.4,3.81,3.81,0,0,0,2.808,1.123,4.119,4.119,0,0,0,0-8.237,5.477,5.477,0,0,0-1.217.187,21.82,21.82,0,0,1,1.03-2.621,4.093,4.093,0,1,0,4.025-6.552h0c.094-.187.281-.281.374-.374a6.051,6.051,0,0,0,1.872.374,4.834,4.834,0,0,0,4.867-4.867,2.591,2.591,0,0,0-.094-.842c1.123-.655,2.247-1.123,3.463-1.685a4.949,4.949,0,0,0,3.557,1.5,5.027,5.027,0,0,0,4.867-3.744,10.365,10.365,0,0,1,1.778-.187,7.167,7.167,0,0,0-1.31,3,3,3,0,1,0,5.991,0A3.7,3.7,0,0,0,485.86,213.435Zm-.749-.655c-9.08.749-16.849,4.119-21.9,10.109a33.511,33.511,0,0,0-7.114,21.154v59.251H443.551V202.109h12.543v14.7h.749l.094-.187c6.084-14.041,17.317-16.381,28.175-17.129Zm7.207-16.568a1.217,1.217,0,1,0,1.217,1.217A1.18,1.18,0,0,0,492.319,196.212ZM601.835,303.669a3.042,3.042,0,1,0,3,3A2.956,2.956,0,0,0,601.835,303.669ZM503.27,195.275a.938.938,0,0,0-.936-.936.864.864,0,0,0-.842.936.839.839,0,0,0,.842.842A.774.774,0,0,0,503.27,195.275Zm-20.031,28.362a.562.562,0,1,0,.562.562C483.894,223.825,483.613,223.637,483.239,223.637Zm6.271-20.125a2.715,2.715,0,1,0,2.715,2.714A2.716,2.716,0,0,0,489.51,203.513Zm23.12,81.9a1.03,1.03,0,1,0-1.03,1.03A1.039,1.039,0,0,0,512.631,285.416Zm-4.4-80.874a2.34,2.34,0,1,0,2.34,2.34A2.378,2.378,0,0,0,508.231,204.542ZM505.517,300.3a2.059,2.059,0,1,0,2.059,2.059A2.078,2.078,0,0,0,505.517,300.3Zm-2.059,10.39a1.03,1.03,0,1,0,1.03,1.03A1.039,1.039,0,0,0,503.457,310.689Zm5.429-18.066a1.591,1.591,0,1,0,1.591,1.591A1.64,1.64,0,0,0,508.886,292.623Zm-42.122-44.368a.936.936,0,1,0-.936.936A1.007,1.007,0,0,0,466.765,248.255ZM433.255,285.6a1.5,1.5,0,1,0,1.5,1.5A1.424,1.424,0,0,0,433.255,285.6Zm-.187-26.583a1.5,1.5,0,1,0-1.5-1.5A1.424,1.424,0,0,0,433.067,259.02Zm3.463,46.9a2.118,2.118,0,0,0-2.153,2.153,2.177,2.177,0,0,0,2.153,2.153,2.118,2.118,0,0,0,2.153-2.153A2.177,2.177,0,0,0,436.531,305.915Zm-25.46-29.485a.936.936,0,1,0,.936.936A.938.938,0,0,0,411.071,276.43Zm34.446,31.638a2.9,2.9,0,1,0,2.9,2.9A2.916,2.916,0,0,0,445.517,308.068ZM410.7,246.851a1.4,1.4,0,1,0,1.4,1.4A1.378,1.378,0,0,0,410.7,246.851Zm52.137,8.612a2.808,2.808,0,1,0,2.808,2.808A2.758,2.758,0,0,0,462.833,255.463Zm3.37,21.716a.923.923,0,0,0-.936.842.936.936,0,0,0,1.872,0A.925.925,0,0,0,466.2,277.179Zm57.379,28.643a2.9,2.9,0,1,0,2.9,2.9A2.916,2.916,0,0,0,523.582,305.821Zm-60.468-21.529a2.715,2.715,0,1,0,2.714,2.714A2.716,2.716,0,0,0,463.114,284.293Zm8.612-54.852a.936.936,0,0,0,0,1.872.864.864,0,0,0,.842-.936A.815.815,0,0,0,471.726,229.441Zm-17.41,83.214a1.123,1.123,0,1,0,1.123,1.123A1.081,1.081,0,0,0,454.315,312.655ZM585.548,232.53a1.578,1.578,0,0,0,1.591,1.591,1.591,1.591,0,0,0,0-3.183A1.522,1.522,0,0,0,585.548,232.53Zm-44.93,27.239a3.737,3.737,0,0,0,3.744-3.651,3.7,3.7,0,0,0-7.395,0A3.6,3.6,0,0,0,540.618,259.768ZM581.9,270.252a2.715,2.715,0,1,0,2.715-2.715A2.779,2.779,0,0,0,581.9,270.252Zm17.223,13.573a1.03,1.03,0,1,0,1.03,1.03A1.039,1.039,0,0,0,599.12,283.825Zm-64.306-41.654a2.34,2.34,0,1,0,2.34,2.34A2.317,2.317,0,0,0,534.815,242.171ZM532.381,310.5a1.03,1.03,0,1,0,1.03,1.03A.982.982,0,0,0,532.381,310.5Zm-9.548-92.761a3.557,3.557,0,1,0,3.557,3.557A3.617,3.617,0,0,0,522.833,217.74Zm67.488,67.769a3.37,3.37,0,1,0-3.37-3.37A3.356,3.356,0,0,0,590.322,285.509Zm2.808-12.824a.842.842,0,0,0,0,1.685.765.765,0,0,0,.749-.842C593.879,272.967,593.6,272.686,593.13,272.686ZM531.726,233a3.016,3.016,0,0,0-3-3,3,3,0,0,0,0,5.991A3.016,3.016,0,0,0,531.726,233Zm53.448,8.331a.842.842,0,1,0-.842.842C584.8,242.077,585.173,241.8,585.173,241.329Zm-174.1,64.68a.936.936,0,1,0,.936.936A.938.938,0,0,0,411.071,306.009Zm181.685-82.371a2.715,2.715,0,1,0-2.715,2.715A2.716,2.716,0,0,0,592.755,223.637Zm-72.73,7.3a.842.842,0,1,0,0-1.685.764.764,0,0,0-.749.842A.825.825,0,0,0,520.025,230.939Zm32.481,46.24a2.059,2.059,0,1,0,2.059,2.059A2.078,2.078,0,0,0,552.506,277.179ZM530.7,262.015a1.578,1.578,0,0,0-1.591-1.591,1.64,1.64,0,0,0-1.591,1.591,1.578,1.578,0,0,0,1.591,1.591A1.523,1.523,0,0,0,530.7,262.015Zm36.412,30.047a1.591,1.591,0,1,0,0,3.182,1.578,1.578,0,0,0,1.591-1.591A1.522,1.522,0,0,0,567.108,292.062ZM535.1,300.018a2.816,2.816,0,0,0-2.808,2.808,2.808,2.808,0,0,0,5.616,0A2.758,2.758,0,0,0,535.1,300.018Zm38,4.212a1.03,1.03,0,1,0,1.03,1.03A1.039,1.039,0,0,0,573.1,304.23ZM549.6,286.914a1.217,1.217,0,1,0,1.217,1.217A1.239,1.239,0,0,0,549.6,286.914Zm11.7-7.114a2.34,2.34,0,0,0,0,4.68,2.34,2.34,0,0,0,0-4.68Zm-38.1-3.651a3.37,3.37,0,1,0,3.37,3.37A3.3,3.3,0,0,0,523.208,276.149Zm5.242-5.242a2.317,2.317,0,0,0-2.34-2.34,2.378,2.378,0,0,0-2.34,2.34,2.317,2.317,0,0,0,2.34,2.34A2.443,2.443,0,0,0,528.45,270.907Zm62.059,38.471a1.872,1.872,0,1,0,1.872,1.872A1.82,1.82,0,0,0,590.509,309.378Zm-8.705-3.557a2.378,2.378,0,0,0-2.34,2.34,2.34,2.34,0,0,0,4.68,0A2.378,2.378,0,0,0,581.8,305.821Zm-9.08-61.966a3.37,3.37,0,1,0,3.37,3.37A3.356,3.356,0,0,0,572.724,243.856Zm-241.03-19a2.153,2.153,0,1,0-2.153-2.153A2.118,2.118,0,0,0,331.695,224.854Zm-17.41,77.6a1.977,1.977,0,0,0-1.966,1.966,1.966,1.966,0,1,0,1.966-1.966Zm-8.8-1.778a1.03,1.03,0,1,0,1.03,1.03A.982.982,0,0,0,305.486,300.673Zm17.878,4.306a2.434,2.434,0,1,0,2.434,2.434A2.478,2.478,0,0,0,323.364,304.979ZM293.6,275.4a2.9,2.9,0,1,0,2.9,2.9A2.857,2.857,0,0,0,293.6,275.4Zm5.335,12.543a2.621,2.621,0,1,0,2.621,2.621A2.745,2.745,0,0,0,298.933,287.943Zm33.136,19.75a2.527,2.527,0,1,0,2.527,2.527A2.517,2.517,0,0,0,332.069,307.694Zm52.7-13.573a3.976,3.976,0,0,0-3.931,4.025,4.037,4.037,0,0,0,3.931,4.025,4.025,4.025,0,0,0,0-8.05Zm5.8,13.292a2.527,2.527,0,1,0,2.527,2.527A2.517,2.517,0,0,0,390.571,307.413ZM294.253,257.8a3.655,3.655,0,0,0-3.651-3.651,3.6,3.6,0,0,0-3.651,3.651,3.655,3.655,0,0,0,3.651,3.651A3.6,3.6,0,0,0,294.253,257.8Zm78.908,43.526a2.715,2.715,0,1,0,2.715,2.715A2.716,2.716,0,0,0,373.161,301.328Zm-32.293,9.922a1.966,1.966,0,1,0,1.966,1.966A1.977,1.977,0,0,0,340.868,311.25Zm20.406-3.838a2.527,2.527,0,1,0,2.527,2.527A2.407,2.407,0,0,0,361.273,307.413Zm20.593-2.434a1.977,1.977,0,0,0-1.966,1.966,2.013,2.013,0,1,0,1.966-1.966Zm-173.916-17.41a2.9,2.9,0,1,0,2.9,2.9A2.857,2.857,0,0,0,207.951,287.569Zm2.527-68.518a1.339,1.339,0,0,0-1.31,1.31,1.31,1.31,0,0,0,2.621,0A1.409,1.409,0,0,0,210.478,219.051Zm-11.794,65.8a2.527,2.527,0,1,0,2.527,2.527A2.644,2.644,0,0,0,198.684,284.854ZM287.7,264.168a2.434,2.434,0,1,0,2.434,2.434A2.417,2.417,0,0,0,287.7,264.168Zm323.4,43.058a1.03,1.03,0,1,0,1.03,1.03A1.039,1.039,0,0,0,611.1,307.226ZM201.211,214.09a3.089,3.089,0,1,0,3.089,3.089A3.116,3.116,0,0,0,201.211,214.09ZM268.7,255.463a3.941,3.941,0,0,0-3.463,2.059,46.169,46.169,0,0,0,.281-5.148V252a5.622,5.622,0,0,0-1.03-9.922h0a4.7,4.7,0,0,0,1.123.187,4.116,4.116,0,0,0,4.119-4.212,4.175,4.175,0,0,0-4.119-4.212,3.892,3.892,0,0,0-3,1.31,44.065,44.065,0,0,0-1.966-4.867,4.606,4.606,0,0,0-1.4-8.986,4.715,4.715,0,0,0-3,1.123c-.187-.281-.468-.655-.655-.936a5.8,5.8,0,0,0-2.434-3.463,4.212,4.212,0,1,0-4.212-4.306c-.094-.094-.281-.187-.374-.374a4.963,4.963,0,0,0,.655-2.621,5.232,5.232,0,0,0-8.8-3.838,5.666,5.666,0,0,0-8.424-4.119l-1.4-.562a5.463,5.463,0,0,0-5.055-3.276,5.386,5.386,0,0,0-3.183,1.03,4.056,4.056,0,0,1-.468-.094,5.655,5.655,0,0,0-5.335-3.838,5.59,5.59,0,0,0-4.4,2.153,4.885,4.885,0,0,0-9.735.562,2.591,2.591,0,0,0,.094.842,33.541,33.541,0,0,0-4.212.842,5.366,5.366,0,0,0-8.144,2.808c-.187.094-.281.187-.468.187a4.41,4.41,0,0,0,.374-1.591,4.119,4.119,0,1,0-8.237,0,4.106,4.106,0,0,0,3.37,4.025.71.71,0,0,1-.374.187,5.878,5.878,0,0,0-1.778-.281,5.333,5.333,0,0,0-5.335,5.335v.468c-.842.749-1.591,1.591-2.434,2.434a5.056,5.056,0,0,0-4.119-2.153v-.936a4.119,4.119,0,1,0,0-6.178v-3.557h-2.808a5.429,5.429,0,0,0-7.863,0h-.842a4.386,4.386,0,1,0-4.306,5.148,4.351,4.351,0,0,0,1.966-.468v4.4a5.566,5.566,0,0,0-1.5,3.744,5.964,5.964,0,0,0,1.4,3.744c-2.527.562-3.463,2.808-3.463,5.523,0,1.872-.094,3.463,1.217,4.493a4.643,4.643,0,0,0,.468,9.267,3.8,3.8,0,0,0,1.778-.374v4.493l-.562.842v-.468a4.212,4.212,0,1,0-4.212,4.212A4.092,4.092,0,0,0,156,243.669a2.885,2.885,0,0,0-.094.936,5.561,5.561,0,0,0,1.217,3.463v.094c-2.434.655-3.37,2.9-3.37,5.523,0,1.778-.094,3.37,1.123,4.493a4.756,4.756,0,0,0,.655,9.454,4.24,4.24,0,0,0,1.5-.281v4.306c-.094.187-.281.374-.374.562v-.094a4.3,4.3,0,1,0-.749,2.34v.562a5.412,5.412,0,0,0,1.123,3.37v.655a5.537,5.537,0,0,0-3.838,5.242,5.478,5.478,0,0,0,1.966,4.212,5.034,5.034,0,0,0,.749,10.016,4.7,4.7,0,0,0,1.123-.187v4.493c-.094.094-.094.187-.187.281v-.468a4.212,4.212,0,1,0-4.212,4.212,4.031,4.031,0,0,0,3.651-2.153,2.886,2.886,0,0,0-.094.936,6.027,6.027,0,0,0,.655,2.621v1.31a5.493,5.493,0,0,0-3.65,5.242,5.59,5.59,0,0,0,2.153,4.4,4.869,4.869,0,0,0,.187,9.735,4.743,4.743,0,0,0,1.217-.187v5.523a4.888,4.888,0,0,0-.374,1.966,4.6,4.6,0,0,0,.374,1.966v.842h.468a6.138,6.138,0,0,0,1.685,1.779,4.355,4.355,0,0,0-4.306,4.306,4.306,4.306,0,1,0,8.612,0,4.44,4.44,0,0,0-1.685-3.463h.374a5.667,5.667,0,0,0,4.774-2.714h.562a3.917,3.917,0,0,0,4.025,3.931,4.025,4.025,0,1,0,0-8.05c-.374,0-.655.094-.936.094v-7.02a4.049,4.049,0,0,0,0-2.434v-3.651a4.8,4.8,0,0,0,2.434-4.212,5,5,0,0,0-2.434-4.212H173.6a4.212,4.212,0,0,0,0-8.424h-3.276v-3.651a4.181,4.181,0,1,0,5.616-5.9c.281,0,.562.094.842.094a4.636,4.636,0,0,0,2.527-.655c1.123.842,2.246,1.685,3.37,2.434l.842.562h-.468a4.119,4.119,0,1,0,4.119,4.119,3.666,3.666,0,0,0-.842-2.434,29.407,29.407,0,0,0,3.463,1.685,4.532,4.532,0,0,0-2.059,3.744,4.493,4.493,0,0,0,8.986,0,3.756,3.756,0,0,0-.281-1.4c.936.281,1.778.468,2.621.655a4.287,4.287,0,0,0-2.153,3.744,4.494,4.494,0,0,0,4.493,4.493,4.436,4.436,0,0,0,4.493-4.493,4.575,4.575,0,0,0-1.03-2.9,37.029,37.029,0,0,0,4.4.281,5.435,5.435,0,0,0,4.119,1.779,5.325,5.325,0,0,0,4.306-2.059,5.062,5.062,0,0,0,10.109-.374,6.119,6.119,0,0,0-.374-1.966c1.03-.374,2.153-.655,3.183-1.123a5.413,5.413,0,0,0,9.735-3.276,8.194,8.194,0,0,0-.187-1.5c.936-.562,1.778-1.217,2.714-1.778a4.951,4.951,0,0,0,4.212,2.246,5.034,5.034,0,0,0,5.055-5.055,5.3,5.3,0,0,0-1.591-3.744,5.594,5.594,0,0,0,4.961-5.616,1.388,1.388,0,0,0-.094-.655c.936-1.4,1.872-2.808,2.714-4.306a4.209,4.209,0,1,0,4.025-5.429,3.882,3.882,0,0,0-1.5.281,18.753,18.753,0,0,0,.936-2.434,4.384,4.384,0,0,0,3.463,1.779,4.294,4.294,0,0,0,4.306-4.306,4.355,4.355,0,0,0-4.306-4.306,4.241,4.241,0,0,0-1.5.281c.281-1.4.562-2.9.842-4.306a3.956,3.956,0,0,0,7.769-1.03C272.631,257.241,270.852,255.463,268.7,255.463Zm-58.128,50.265c-10.577,0-28.081-3.651-39.407-20.125l-.094-.094h-.749v53.541H157.779V202.109h12.543v17.878h.749l.094-.094c11.607-16.661,28.456-20.312,39.407-20.312,33.136,0,54.384,25.928,54.384,52.886C264.955,281.484,242.4,305.728,210.571,305.728Zm65.523-34.914a.655.655,0,1,0,.655.655A.64.64,0,0,0,276.094,270.814Zm9.641-24.711a1.03,1.03,0,1,0-1.03,1.03A.934.934,0,0,0,285.735,246.1Zm-14.041,1.123a3.116,3.116,0,0,0-3.089,3.089,3.056,3.056,0,0,0,3.089,3.089,3.116,3.116,0,0,0,3.089-3.089A3.18,3.18,0,0,0,271.695,247.226Zm3-7.208a1.03,1.03,0,1,0,1.03,1.03A1.039,1.039,0,0,0,274.69,240.018ZM381.4,250.97a2.621,2.621,0,1,0-2.621-2.621A2.616,2.616,0,0,0,381.4,250.97Zm23.963,35.195a2.808,2.808,0,0,0,5.616,0,2.816,2.816,0,0,0-2.808-2.808A2.878,2.878,0,0,0,405.361,286.165ZM322.99,275.213a2.9,2.9,0,1,0,2.9,2.9A2.8,2.8,0,0,0,322.99,275.213Zm-6.084-41a2.808,2.808,0,1,0,2.808,2.808A2.816,2.816,0,0,0,316.905,234.215Zm23.682,48.206a1.4,1.4,0,1,0,1.4,1.4A1.379,1.379,0,0,0,340.587,282.421ZM189.043,220.361a3,3,0,1,0,3,3A2.957,2.957,0,0,0,189.043,220.361ZM331.882,278.77a1.966,1.966,0,1,0,0,3.931,1.977,1.977,0,0,0,1.966-1.966A2.113,2.113,0,0,0,331.882,278.77Zm-12.169-46.989a3.463,3.463,0,1,0-3.463-3.463A3.4,3.4,0,0,0,319.713,231.781Zm85.554,25.086a2.621,2.621,0,1,0,2.621-2.621A2.559,2.559,0,0,0,405.267,256.867Zm0,34.633a3.459,3.459,0,0,0-3,1.685v-5.9a4.79,4.79,0,0,0,1.966-3.931,5.055,5.055,0,0,0-1.966-3.931v-.468a4.51,4.51,0,0,0,0-8.986V268.1a3.568,3.568,0,1,0,2.714-5.9,3.683,3.683,0,0,0-2.714,1.217V257.99a5.167,5.167,0,0,0,1.872-4.025,5.313,5.313,0,0,0-1.872-4.025v-.468a4.434,4.434,0,0,0,3.931-4.306,4.29,4.29,0,0,0-3.931-4.306v-1.778a3.617,3.617,0,0,0,2.527,1.03,3.744,3.744,0,0,0,0-7.488,3.457,3.457,0,0,0-2.527,1.03v-5.242a5.314,5.314,0,0,0,1.778-3.838,4.986,4.986,0,0,0-1.778-3.838v-.468a4.44,4.44,0,0,0,0-8.8v-1.685a3.809,3.809,0,0,0,2.246.749,3.6,3.6,0,0,0,3.651-3.651,3.655,3.655,0,0,0-3.651-3.651,3.809,3.809,0,0,0-2.246.749v-2.527h-1.966a5.009,5.009,0,0,0-4.493-2.621,5.118,5.118,0,0,0-4.493,2.621h-.749v-.281a3.6,3.6,0,0,0-3.651-3.651,3.651,3.651,0,0,0,0,7.3,4.26,4.26,0,0,0,1.872-.468v4.961a1.291,1.291,0,0,0-.281.374,4.393,4.393,0,0,0-4.4-4.025,4.332,4.332,0,0,0-4.306,3.557c-.094-.094-.281-.187-.374-.281a4.437,4.437,0,0,0-4.212-5.991,4.885,4.885,0,0,0-3.182,1.31,2.346,2.346,0,0,1-.655-.374,4.849,4.849,0,0,0-8.143-3.089,2.733,2.733,0,0,0-.842-.187,4.815,4.815,0,0,0-8.986-1.5c0-.187.094-1.03.094-1.217a4.316,4.316,0,0,0-4.4-4.306,4.4,4.4,0,0,0-4.493,4.306,5.334,5.334,0,0,0,.094,1.217,45.492,45.492,0,0,0-5.148.655,5.553,5.553,0,0,0-2.153-.468,5.468,5.468,0,0,0-4.025,1.872c-.094,0-.187.094-.281.094a4.645,4.645,0,0,0-4.587-4.025,4.594,4.594,0,0,0-4.587,4.587,4.475,4.475,0,0,0,.749,2.527c-1.123.562-2.246,1.123-3.37,1.778a4.606,4.606,0,0,0-8.986,1.4A4.629,4.629,0,0,0,314,211.095l-.094.094a5.24,5.24,0,0,0-5.242,4.961c-1.03,1.123-1.966,2.247-2.9,3.37a4.664,4.664,0,0,0-3.463-1.591,4.615,4.615,0,0,0-2.434,8.518h-1.685a4.794,4.794,0,0,0-4.774,4.774c0,1.778,2.153,3.37,3.651,4.212h-1.5c-2.621,0-3.557,2.153-3.557,4.774A4.765,4.765,0,0,0,295.1,244.7v.094a4.741,4.741,0,0,0-1.217-.187,4.4,4.4,0,1,0,0,8.8,1.828,1.828,0,0,0,.655-.094,49.182,49.182,0,0,0,.281,5.242,5.656,5.656,0,0,0-.468,2.246,5.566,5.566,0,0,0,1.5,3.744c0,.187.094.281.094.468a4.681,4.681,0,0,0,.936,9.267,5.03,5.03,0,0,0,1.966-.468c.468,1.123,1.03,2.34,1.591,3.463a6.482,6.482,0,0,0-2.808,4.587,4.635,4.635,0,0,0,4.68,4.68,7.541,7.541,0,0,0,3.089-1.31c.936,1.217,1.966,2.434,3,3.557a4.034,4.034,0,0,0,.374,8.05,4.072,4.072,0,0,0,4.025-3.744c.187.187.468.374.655.562a5.2,5.2,0,0,0-.468,2.153,4.635,4.635,0,0,0,4.68,4.68,4.737,4.737,0,0,0,3.463-1.5.327.327,0,0,1,.187.094,5.126,5.126,0,0,0,5.148,4.774,5.41,5.41,0,0,0,3-.936,3.912,3.912,0,0,1,.936.374,5.18,5.18,0,0,0,8.331,2.153c.281.094.562.094.842.187a4.613,4.613,0,0,0,4.493,3.557,4.5,4.5,0,0,0,4.212-2.808h.562a2.887,2.887,0,0,0-.094.936,4.025,4.025,0,0,0,8.05,0,3.42,3.42,0,0,0-.281-1.4c1.591-.187,3.276-.562,4.961-.936a4.39,4.39,0,0,0,2.9,1.03,4.443,4.443,0,0,0,4.4-3.37,57.2,57.2,0,0,0,5.9-2.9,3.639,3.639,0,0,0,1.4.187,4.537,4.537,0,0,0,4.493-4.4c1.123-.936,2.246-1.966,3.276-3a4.929,4.929,0,0,0,3.838,1.872,5.523,5.523,0,0,0,1.31-.187V300.3a3.836,3.836,0,0,0,0,1.685v1.872h.749a4.683,4.683,0,0,0,4.025,2.059,5.049,5.049,0,0,0,4.025-2.059h1.31a3.557,3.557,0,1,0,3.557-3.557h-.094v-3.463a3.458,3.458,0,0,0,3,1.685,3.555,3.555,0,0,0,3.557-3.557A4.009,4.009,0,0,0,405.267,291.5ZM401.8,303.294H389.261V285.416h-.749l-.094.094c-11.045,16.661-28.83,20.125-39.407,20.125-31.825,0-54.384-24.243-54.384-53.261,0-27.051,21.248-52.886,54.384-52.886,10.952,0,28.643,3.557,39.407,20.312l.094.094h.749V202.015H401.8Zm-84.9-57.473a2.816,2.816,0,0,0-2.808-2.808,2.9,2.9,0,0,0-2.9,2.808,2.837,2.837,0,0,0,2.9,2.808A2.757,2.757,0,0,0,316.905,245.822ZM604.83,294.776a1.591,1.591,0,1,0,1.591,1.591A1.578,1.578,0,0,0,604.83,294.776Zm2.434-95.663a1.217,1.217,0,1,0,1.217,1.217A1.239,1.239,0,0,0,607.264,199.113Zm-290.172,64.68a2.434,2.434,0,1,0,2.434,2.434A2.417,2.417,0,0,0,317.092,263.793ZM374,236.742a1.4,1.4,0,1,0,1.4-1.4A1.44,1.44,0,0,0,374,236.742ZM372.88,272.4a2.34,2.34,0,1,0,2.34,2.34A2.378,2.378,0,0,0,372.88,272.4Zm-29.86-59.158a3.089,3.089,0,1,0,3.089,3.089A3.116,3.116,0,0,0,343.021,213.247Zm35.569,45.3a1.4,1.4,0,1,0-1.4-1.4A1.44,1.44,0,0,0,378.59,258.552Zm-6.459-33.6a2.621,2.621,0,1,0-2.621,2.621A2.616,2.616,0,0,0,372.131,224.948Zm3.651,39.688a1.31,1.31,0,0,0,0,2.621,1.28,1.28,0,0,0,1.31-1.31A1.339,1.339,0,0,0,375.782,264.636Zm-14.6,14.7a1.4,1.4,0,1,0,1.4,1.4A1.44,1.44,0,0,0,361.18,279.332Zm-9.267-61.966a1.872,1.872,0,1,0,1.872,1.872A1.878,1.878,0,0,0,351.913,217.366Zm-2.434,66.739a2.527,2.527,0,1,0,2.527,2.527A2.46,2.46,0,0,0,349.479,284.105Zm11.326-60.655a1.4,1.4,0,1,0-1.4-1.4A1.378,1.378,0,0,0,360.805,223.45ZM595.376,298.24l-1.03-1.5a3.871,3.871,0,0,0,1.778.468,3.6,3.6,0,0,0,3.651-3.651,3.651,3.651,0,1,0-7.3,0v.468l-.468-.749a5.623,5.623,0,0,0,.655-2.527,5.333,5.333,0,0,0-5.335-5.335h-.562l-1.966-2.9a4.9,4.9,0,0,0,1.5-3.463,4.994,4.994,0,0,0-4.961-4.961,6.052,6.052,0,0,0-1.872.374l-1.872-2.808a4.547,4.547,0,0,0,2.621-4.119,4.57,4.57,0,0,0-7.675-3.37l-.468-.655a5.335,5.335,0,0,0-2.247-3.37,4.306,4.306,0,0,0-.094-8.612,4.44,4.44,0,0,0-3.463,1.685v-.281a5.256,5.256,0,0,0-.842-2.9l.655-.842a5.363,5.363,0,0,0,3.089-4.4l2.9-4.212a4.054,4.054,0,0,0,3.37,1.872,4,4,0,0,0,4.025-4.025,4.1,4.1,0,0,0-3.089-3.931l.374-.562a4.373,4.373,0,0,0,1.591.281,4.594,4.594,0,0,0,4.587-4.587,4.923,4.923,0,0,0-1.123-3l.749-1.03a5.027,5.027,0,0,0,3.744-4.867.844.844,0,0,0-.094-.468l2.9-4.119a3.738,3.738,0,1,0,3.557-4.867h-.094l.936-1.31a4.507,4.507,0,0,0,2.247.655,4.294,4.294,0,0,0,4.306-4.306,4.123,4.123,0,0,0-1.685-3.37l.842-1.217h-7.956a4.618,4.618,0,0,0-4.306-2.9,4.546,4.546,0,0,0-4.4,3.37l-3.37,4.961a4.316,4.316,0,0,0-8.05,2.246,4.34,4.34,0,0,0,3.651,4.306l-.094.187a5.642,5.642,0,0,0-2.153-.562,4.794,4.794,0,0,0-4.774,4.774,4.871,4.871,0,0,0,1.591,3.557l-.094.187a5.093,5.093,0,0,0-4.68,5.055,7.273,7.273,0,0,0,.187,1.5l-2.434,3.557a4.521,4.521,0,0,0-4.4-3.744,4.415,4.415,0,0,0-2.621,7.956h-.281a5.3,5.3,0,0,0-1.685.281l-1.966-2.9c1.31-.749,2.9-2.621,2.9-4.212a4.294,4.294,0,0,0-4.306-4.306,7.554,7.554,0,0,0-3.463,1.4l-1.123-1.685c-.281-.468-.562-.936-.843-1.31l-.749-1.123a4.138,4.138,0,0,0,3.557-4.119A4.2,4.2,0,0,0,543.146,214a4.124,4.124,0,0,0-3.557,1.966c0-.187.094-.374.094-.562a5.025,5.025,0,0,0-4.025-4.961l-.842-1.217a3.616,3.616,0,0,0,2.527,1.03,3.651,3.651,0,1,0-3.651-3.651,3.755,3.755,0,0,0,.281,1.4l-1.4-1.966a4.347,4.347,0,0,0,.562-2.153,4.571,4.571,0,0,0-8.612-2.153h-.562c0-.281.094-.468.094-.749a4.212,4.212,0,1,0-8.424,0,2.06,2.06,0,0,0,.094.749h-2.34l2.808,4.025a4.115,4.115,0,0,0-3.276,4.025A4.2,4.2,0,0,0,517.124,214a4.094,4.094,0,0,0,3.463-1.872l.094.187v.374a5.139,5.139,0,0,0,3.651,4.867l3,4.306a4.708,4.708,0,0,0-.749,2.527,4.994,4.994,0,0,0,4.961,4.961,2.591,2.591,0,0,0,.842-.094l2.059,3c-1.123.842-2.715,2.34-2.715,3.931a4.814,4.814,0,0,0,4.867,4.774,8.144,8.144,0,0,0,3.37-.842l2.34,3.37a4.323,4.323,0,0,0,1.03,8.518,4.44,4.44,0,0,0,3.463-1.685v.281a5.117,5.117,0,0,0,.749,2.714l-.842,1.31a5.446,5.446,0,0,0-2.808,4.119l-2.715,3.931a4.282,4.282,0,1,0-4.4,6.552l-.094.187a4.192,4.192,0,0,0-1.872-.374,4.894,4.894,0,0,0-4.867,4.867,4.815,4.815,0,0,0,1.4,3.37,5.261,5.261,0,0,0-4.587,5.242,7.224,7.224,0,0,0,.187,1.4l-2.621,3.838a4.107,4.107,0,0,0-4.025-3.37,4.119,4.119,0,0,0,0,8.237,2.591,2.591,0,0,0,.842-.094l-.655,1.03a4.322,4.322,0,0,0-2.808-1.03,4.594,4.594,0,0,0-4.587,4.587,4.455,4.455,0,0,0,2.34,3.931l-1.217,1.778a3.421,3.421,0,0,0-2.808,3.37,3.37,3.37,0,1,0,5.9-2.246H523.4a4.872,4.872,0,0,0,5.991,0h0a4.922,4.922,0,0,0,1.685-2.621l3.557-5.429a3.647,3.647,0,0,0,6.833-1.779,3.725,3.725,0,0,0-3.276-3.651l.842-1.217a4.926,4.926,0,0,0,1.685.374,4.394,4.394,0,0,0,4.4-4.4,4.463,4.463,0,0,0-1.31-3.089l.562-.842a4.835,4.835,0,0,0,4.119-4.774,5.477,5.477,0,0,0-.187-1.217l2.715-4.025a4.332,4.332,0,1,0,7.02-4.025h0a1.593,1.593,0,0,0,.655-.094l1.966,3a4.873,4.873,0,0,0-1.4,3.463,4.794,4.794,0,0,0,4.774,4.774,6.05,6.05,0,0,0,1.872-.374l2.246,3.37c-1.5.655-3.276,2.527-3.276,4.212a4.2,4.2,0,0,0,4.212,4.212,6.208,6.208,0,0,0,3.557-1.591l.936,1.4a5.27,5.27,0,0,0,1.591,2.434l.562.842h0a3.651,3.651,0,1,0,0,7.3,3.7,3.7,0,0,0,3.37-2.246l.468.655a2.888,2.888,0,0,0-.094.936,4.994,4.994,0,0,0,4.961,4.961,5.559,5.559,0,0,0,2.434-.655h1.966a4.681,4.681,0,0,0,4.4,3.089,4.559,4.559,0,0,0,4.306-3.089h1.5l-1.31-1.872A3.919,3.919,0,0,0,595.376,298.24ZM583.4,303.294l-27.051-40.9-27.052,40.9H514.5l34.633-51.482-.094-.094L514.6,202.109h14.977l26.864,39.407,26.677-39.407h15.164l-34.633,49.8,34.633,51.482H583.4ZM349.1,210.72a42.037,42.037,0,0,0-29.392,11.42c-7.675,7.3-12.543,17.878-12.543,30.889a41.642,41.642,0,0,0,11.513,29.3c7.395,7.488,17.878,12.169,30.328,12.169a40.485,40.485,0,0,0,28.736-11.888,41.577,41.577,0,0,0,12.169-29.86,43.019,43.019,0,0,0-11.607-29.485A39.984,39.984,0,0,0,349.1,210.72ZM381.866,230v.374a5.48,5.48,0,0,0,3.276,4.961,3.184,3.184,0,0,0-.936-.094,4.119,4.119,0,1,0,0,8.237,4.112,4.112,0,0,0,3.651-2.246c0,.094,0,.094.094.187a2.326,2.326,0,0,0-.094.749,5.409,5.409,0,0,0,.936,3c.094.374.094.655.187,1.03-2.247.562-2.621,2.621-2.621,4.961,0,1.778-.374,3.37,1.03,4.306a4.587,4.587,0,0,0,0,9.173h.468l-.281.842a4.561,4.561,0,0,0-3.089-1.217,4.485,4.485,0,0,0-2.153,8.424,11.315,11.315,0,0,0-1.685-.468,4.834,4.834,0,0,0-4.867,4.867c0,1.5,1.591,3.276,2.621,4.212h0a5.014,5.014,0,0,0-4.774,4.4,8.188,8.188,0,0,0-.936.749,3.891,3.891,0,0,0,1.217-2.808,3.931,3.931,0,1,0-3.931,3.931,3.585,3.585,0,0,0,1.779-.468c-.562.374-1.123.749-1.779,1.123a4.953,4.953,0,0,0-2.808-.842,5.073,5.073,0,0,0-5.055,4.493c-.281.094-.468.187-.749.281a4.058,4.058,0,0,0,.936-2.621,4.025,4.025,0,1,0-8.05,0,3.932,3.932,0,0,0,1.872,3.37h-.749a4.909,4.909,0,0,0-3.089,1.03c-.374,0-.749.094-1.123.094a4.863,4.863,0,0,0-4.68-3.37,4.915,4.915,0,0,0-4.212,2.34c0-.187.374-1.31.374-1.5a4.494,4.494,0,0,0-4.493-4.493,4.606,4.606,0,0,0-4.4,3.37s-.374.936-.468.936a3.88,3.88,0,0,0,.281-1.5,4.635,4.635,0,0,0-4.68-4.68,4.8,4.8,0,0,0-3.182,1.217,5.273,5.273,0,0,0-5.242-4.68,7.273,7.273,0,0,0-1.5.187l-2.246-2.527a4.675,4.675,0,0,0-2.527-8.612,4.172,4.172,0,0,0-2.434.749c-.562-1.217-1.03-2.34-1.5-3.651a4.746,4.746,0,0,0,2.621-4.212,4.635,4.635,0,0,0-4.68-4.68h-.094c-.094-.842-.187-1.591-.281-2.434a3.71,3.71,0,0,0,3.182,1.966,3.6,3.6,0,0,0,3.651-3.651,3.655,3.655,0,0,0-3.651-3.651,3.7,3.7,0,0,0-3.37,2.246v-.281a55.03,55.03,0,0,1,.281-5.616,5.108,5.108,0,0,0,2.434-4.4,5.409,5.409,0,0,0-.936-3c.094-.187.094-.468.187-.655a5.343,5.343,0,0,0,3.651-5.055,5.074,5.074,0,0,0-.562-2.34,21.158,21.158,0,0,1,1.5-2.434,6.011,6.011,0,0,0,1.685-2.34,53.539,53.539,0,0,1,3.744-4.306,4.923,4.923,0,0,0,3,1.123,4.594,4.594,0,0,0,4.587-4.587,5.1,5.1,0,0,0-.468-2.059c1.123-.655,2.246-1.31,3.463-1.872a4.541,4.541,0,0,0,3.931,2.434,4.494,4.494,0,0,0,4.493-4.493,3.184,3.184,0,0,0-.094-.936,30.386,30.386,0,0,1,4.025-.749,5.561,5.561,0,0,0,3.463,1.217,5.44,5.44,0,0,0,3.931-1.685,4.839,4.839,0,0,0,4.774,3.744,4.758,4.758,0,0,0,4.119-2.34v.468a4.794,4.794,0,0,0,4.774,4.774,4.742,4.742,0,0,0,3.931-2.059v.187a4.994,4.994,0,0,0,4.961,4.961,4.447,4.447,0,0,0,2.246-.562,36.463,36.463,0,0,1,3.37,3.183,4.127,4.127,0,0,0,.374,8.237A4.388,4.388,0,0,0,381.866,230Zm-141.9-7.863a42.456,42.456,0,0,0-29.392-11.42,39.723,39.723,0,0,0-29.3,12.637,42.848,42.848,0,0,0-11.607,29.485,41.739,41.739,0,0,0,12.169,29.86,40.879,40.879,0,0,0,28.736,11.888c12.543,0,23.027-4.68,30.328-12.168a41.316,41.316,0,0,0,11.607-29.3C252.412,240.018,247.639,229.441,239.963,222.14Zm2.247,3.089c.749.842,1.4,1.778,2.153,2.715a4.836,4.836,0,0,0-2.246,4.212,4.994,4.994,0,0,0,4.961,4.961,4.351,4.351,0,0,0,1.966-.468c.374,1.03.749,2.059,1.123,3.183a5.276,5.276,0,0,0-2.059,4.212,5.335,5.335,0,0,0,3.838,5.148v.187a3.756,3.756,0,0,0-1.4-.281,4.306,4.306,0,1,0,0,8.612,5.522,5.522,0,0,0,1.31-.187,25.254,25.254,0,0,1-.562,3.838,3.85,3.85,0,0,0-3.744-2.714,3.932,3.932,0,1,0,2.715,6.739,30.816,30.816,0,0,1-1.966,5.148,3.921,3.921,0,1,0-3.744,5.055,4.7,4.7,0,0,0,1.123-.187c-.374.655-.842,1.217-1.217,1.872a8.073,8.073,0,0,0-3.838-1.5,4.635,4.635,0,0,0-4.68,4.68c0,1.31,1.4,2.808,2.153,3.651a9.922,9.922,0,0,0-1.123.936,5.582,5.582,0,0,0-3.183,2.246c-.374.187-.655.468-1.03.655a2.592,2.592,0,0,0,.094-.842,3.655,3.655,0,0,0-3.65-3.651,3.737,3.737,0,0,0-3.744,3.651,3.673,3.673,0,0,0,2.34,3.463c-.374.187-.749.281-1.217.468h-.468a5.378,5.378,0,0,0-3.557,1.31c-.562.187-1.123.281-1.685.468a4.043,4.043,0,0,0-4.025-3.463,4.155,4.155,0,0,0-4.119,4.119v.468c-.749,0-1.591.094-2.34.094a39.585,39.585,0,0,1-11.981-1.872,5.8,5.8,0,0,0-2.246-.749,38.005,38.005,0,0,1-7.3-3.651h.562a3.276,3.276,0,1,0,0-6.552,3.274,3.274,0,0,0-2.808,4.961c-.936-.655-1.779-1.4-2.715-2.153a4.8,4.8,0,0,0,.842-2.527,4.556,4.556,0,0,0-4.493-4.493,5.677,5.677,0,0,0-2.246.562,40.267,40.267,0,0,1-2.715-4.212,4.129,4.129,0,0,0,3.089-4.025,4.2,4.2,0,0,0-4.212-4.212,4.506,4.506,0,0,0-2.246.655c-.468-1.5-.842-3-1.217-4.587a5.049,5.049,0,0,0,2.059-4.025,4.983,4.983,0,0,0-2.9-4.493v-.468c.281.094,3.37.094,3.651.094a4.308,4.308,0,0,0,.187-8.612c.094-.468-2.527-1.03-2.434-1.5a3.92,3.92,0,0,0,2.527.842A4.175,4.175,0,0,0,178,238.895a4.121,4.121,0,0,0-3.931-4.119,8.645,8.645,0,0,1,.468-.936,4.447,4.447,0,0,0,2.246.562,4.635,4.635,0,0,0,4.68-4.68,4.744,4.744,0,0,0-1.872-3.744c.094-.094.094-.187.187-.187h.094a5.314,5.314,0,0,0,5.335-5.242v-.094c1.123-.936,2.34-1.778,3.557-2.621a4.766,4.766,0,0,0,8.144-3.37,1.388,1.388,0,0,0-.094-.655,29.874,29.874,0,0,1,4.119-1.217,5.4,5.4,0,0,0,7.488-1.123h.374c0,2.434,2.059,3.276,4.493,3.276,2.246,0,4.119-.468,4.4-2.714a3.325,3.325,0,0,1,.936.187c-.281.562-1.5,2.246-1.5,3a4.217,4.217,0,0,0,8.424.281c.374.094,1.685-.655,2.059-.562-.374.655-1.591,2.434-1.591,3.183a4.694,4.694,0,0,0,4.68,4.68c1.591,0,3.931-1.685,4.774-2.9v.374a5.333,5.333,0,0,0,5.335,5.335C241.367,225.416,241.835,225.322,242.21,225.229Z" transform="translate(3816.567 -530.329)"></path>
    <path id="Path_133" data-name="Path 133" class="parx-logo-cls2" d="M211.173,199.98c33.136,0,54.384,25.928,54.384,52.886,0,29.017-22.559,53.26-54.384,53.26-10.577,0-28.081-3.651-39.407-20.125l-.094-.094-.749.936V339.45H158.38V202.6h12.543v17.878h.749l.094-.094c11.607-16.661,28.456-20.406,39.407-20.406m0,95.008c12.543,0,23.027-4.68,30.328-12.169a41.316,41.316,0,0,0,11.607-29.3c0-13.011-4.867-23.588-12.543-30.889a42.457,42.457,0,0,0-29.392-11.42,39.723,39.723,0,0,0-29.3,12.636,42.848,42.848,0,0,0-11.607,29.485,41.739,41.739,0,0,0,12.169,29.86,40.8,40.8,0,0,0,28.736,11.794m0-99.688c-6.927,0-22.371,1.5-35.569,13.573V197.921H153.7V344.13h21.9V297.515a50.366,50.366,0,0,0,14.321,9.08,56.091,56.091,0,0,0,21.248,4.306c16.381,0,31.451-6.084,42.5-17.129A57.627,57.627,0,0,0,270.33,252.96a58.259,58.259,0,0,0-16.1-39.875c-11.045-11.42-26.3-17.785-43.058-17.785Zm0,95.008a36.145,36.145,0,0,1-25.46-10.484,36.91,36.91,0,0,1-10.858-26.49,37.664,37.664,0,0,1,10.39-26.209,35.322,35.322,0,0,1,25.928-11.139A37.362,37.362,0,0,1,237.288,226.1c7.3,6.927,11.045,16.381,11.045,27.519a37.05,37.05,0,0,1-10.2,26.022c-6.739,6.833-16.381,10.671-26.958,10.671Z" transform="translate(3815.966 -530.821)"></path>
    <path id="Path_134" data-name="Path 134" class="parx-logo-cls2" d="M359.064,199.98c10.952,0,28.643,3.557,39.407,20.312l.094.094h.749V202.507h12.543V303.693H399.22V285.815h-.749l-.094.094c-11.045,16.661-28.83,20.125-39.407,20.125-31.825,0-54.384-24.243-54.384-53.26.094-26.864,21.342-52.793,54.477-52.793m0,95.008A40.485,40.485,0,0,0,387.8,283.1a41.577,41.577,0,0,0,12.169-29.86,43.019,43.019,0,0,0-11.607-29.485,40.075,40.075,0,0,0-29.3-12.637,42.037,42.037,0,0,0-29.392,11.42c-7.676,7.3-12.543,17.878-12.543,30.889a41.643,41.643,0,0,0,11.513,29.3c7.395,7.582,17.878,12.262,30.421,12.262m0-99.688C322.091,195.3,300,224.6,300,252.866a57.235,57.235,0,0,0,16.661,40.811c10.952,11.045,26.022,17.129,42.5,17.129,7.02,0,22.746-1.5,35.569-13.2v10.764h21.9V197.921H394.54V208.4C382,196.8,366.178,195.3,359.064,195.3Zm0,95.008c-10.577,0-20.218-3.838-27.051-10.764a37.05,37.05,0,0,1-10.2-26.022c0-11.045,3.838-20.593,11.045-27.519a37.362,37.362,0,0,1,26.115-10.109A35.322,35.322,0,0,1,384.9,227.032a38.085,38.085,0,0,1,10.39,26.209,36.753,36.753,0,0,1-10.858,26.49,35.467,35.467,0,0,1-25.367,10.577Z" transform="translate(3806.608 -530.821)"></path>
    <path id="Path_135" data-name="Path 135" class="parx-logo-cls2" d="M505.24,200.055v13.292c-9.08.749-16.849,4.119-21.9,10.109a33.512,33.512,0,0,0-7.114,21.154v59.251H463.68V202.582h12.543v14.7h.468c6.084-14.041,17.6-16.474,28.549-17.223M509.92,195l-5.055.374c-8.237.562-17.036,2.153-23.963,8.144V197.9H459V308.448h21.9V244.516a28.349,28.349,0,0,1,6.084-18.159c4.025-4.774,10.484-7.675,18.627-8.424l4.306-.374V195Z" transform="translate(3796.438 -530.802)"></path>
    <path id="Path_136" data-name="Path 136" class="parx-logo-cls2" d="M622.955,202.78l-34.633,49.8,34.633,51.482H608.166l-27.052-40.9-27.052,40.9H539.273l34.633-51.482-.094-.094-34.446-49.61h14.977l26.864,39.407,26.677-39.407h15.07m8.892-4.774H605.17l-1.4,2.059-22.839,33.7-23.026-33.7-1.4-2.059H530.1l5.148,7.395,32.761,47.083-32.855,48.768-4.867,7.3H556.4l1.4-2.059,23.214-35.008,23.214,35.008,1.4,2.059h26.115l-4.867-7.3-32.761-48.768,32.761-47.083,4.961-7.395Z" transform="translate(3791.89 -531)"></path>
    <path id="Path_137" data-name="Path 137" class="parx-logo-cls2" d="M486.4,203a2.916,2.916,0,0,1-2.9,2.9h0a2.916,2.916,0,0,1-2.9-2.9h0a2.916,2.916,0,0,1,2.9-2.9h0a2.916,2.916,0,0,1,2.9,2.9Z" transform="translate(3795.057 -531.128)"></path>
  </g>
</svg>