<?xml version="1.0" encoding="utf-8"?>
<svg viewBox="221.058 145.25 181.966 37.281" width="181.966" height="37.281" xmlns="http://www.w3.org/2000/svg">
  <g fill="none" fillrule="evenodd" transform="matrix(1, 0, 0, 1, 221.057755, 144.846054)">
    <path d="M31.936 37.684c-1.888 0-3.405-.316-4.55-.947-1.147-.631-2.023-1.493-2.63-2.586-.472-.82-.783-1.613-.935-2.381-.152-.768-.227-1.732-.227-2.893 0-1.127.117-2.527.354-4.2a85.39 85.39 0 0 1 1.01-5.633c.54-2.594 1.02-4.77 1.442-6.529.42-1.758.834-3.226 1.239-4.404.404-1.177.833-2.133 1.289-2.868.455-.733.968-1.39 1.542-1.971.977-.99 2.047-1.715 3.21-2.176 1.163-.461 2.604-.692 4.323-.692 1.887 0 3.404.316 4.55.948 1.146.632 2.022 1.494 2.63 2.586.47.82.783 1.613.935 2.381.151.768.227 1.733.227 2.893 0 1.127-.118 2.527-.354 4.2a86.277 86.277 0 0 1-1.01 5.632c-.54 2.63-1.02 4.814-1.442 6.555-.422 1.741-.834 3.2-1.238 4.379-.405 1.177-.835 2.133-1.29 2.868-.455.734-.969 1.391-1.542 1.97-.978.992-2.048 1.716-3.21 2.177-1.163.461-2.604.691-4.323.691zM51.303.814h6.775l-7.18 36.461h-6.774L51.304.814zm9.933 0h5.511l3.64 18.487L73.775.814h6.775l-7.18 36.461h-5.258l-3.69-18.435-3.59 18.435h-6.775L61.237.814zm26.527 6.145h-5.764L83.212.814h18.303l-1.213 6.145h-5.764l-5.966 30.316h-6.775l5.966-30.316zM106.2 37.685c-1.686 0-3.06-.197-4.12-.59-1.062-.392-1.964-.964-2.706-1.715-1.213-1.229-1.82-2.833-1.82-4.814 0-1.057.118-2.286.354-3.687h6.775c-.068.445-.118.837-.152 1.178a9.41 9.41 0 0 0-.05.922c0 .854.185 1.468.556 1.843.202.206.446.377.733.513.286.137.632.205 1.036.205.472 0 .893-.06 1.264-.18.37-.119.725-.35 1.062-.69.37-.376.649-.803.835-1.282.184-.477.361-1.108.53-1.894.102-.512.169-1.015.203-1.511.033-.494.05-.896.05-1.203 0-.717-.202-1.297-.606-1.741-.405-.444-.995-.853-1.77-1.23l-3.489-1.69c-1.416-.682-2.419-1.527-3.008-2.534-.59-1.007-.885-2.142-.885-3.405 0-.785.033-1.511.101-2.177.067-.666.185-1.39.354-2.176.27-1.297.64-2.535 1.113-3.713.471-1.178 1.112-2.176 1.92-2.996a9.333 9.333 0 0 1 2.883-1.997c1.078-.478 2.51-.717 4.297-.717 1.72 0 3.084.197 4.096.59a7.439 7.439 0 0 1 2.629 1.715c.538.546.943 1.238 1.213 2.074.27.836.404 1.715.404 2.637 0 .512-.017 1.075-.05 1.69-.034.614-.119 1.28-.253 1.997h-6.775c.101-.512.168-.947.202-1.306.033-.358.05-.673.05-.947 0-.853-.168-1.451-.505-1.793a2.169 2.169 0 0 0-.556-.384c-.236-.119-.54-.179-.91-.179-.776 0-1.415.256-1.921.768-.304.308-.548.717-.733 1.23a8.334 8.334 0 0 0-.38 1.331c-.168.854-.252 1.605-.252 2.253 0 1.16.606 2.015 1.82 2.56l2.882 1.383c1.887.888 3.21 1.827 3.969 2.816.758.991 1.137 2.272 1.137 3.841 0 .717-.034 1.485-.1 2.305-.069.819-.186 1.673-.355 2.56a31.21 31.21 0 0 1-.632 2.663c-.22.751-.455 1.417-.708 1.997a9.27 9.27 0 0 1-.834 1.536c-.303.445-.64.854-1.01 1.23a8.594 8.594 0 0 1-3.161 2.048c-1.197.443-2.773.666-4.727.666zM24.167 5.269a5.658 5.658 0 0 0-1.416-2.355A6.459 6.459 0 0 0 20.198 1.3c-.96-.325-2.25-.487-3.868-.487H7.18L0 37.275h6.775l1.9-9.739c.422-2.878-4.044-3.474-4.044-3.474l8.06.001c1.516 0 2.881-.17 4.094-.512a7.849 7.849 0 0 0 3.236-1.818c.944-.87 1.753-2.056 2.427-3.56.674-1.5 1.247-3.413 1.72-5.735a18.51 18.51 0 0 0 .302-2.15c.068-.785.102-1.52.102-2.202 0-.99-.136-1.929-.405-2.817zm-6.547 5.787c-.085.546-.16 1.007-.228 1.382-.37 1.81-.843 3.175-1.415 4.097-.574.922-1.551 1.383-2.933 1.383h-2.477L12.74 6.959h2.326c1.01 0 1.71.214 2.098.64.387.427.581 1.084.581 1.972 0 .444-.042.939-.126 1.485zm14.973 20.483c.472 0 .876-.085 1.214-.256.336-.17.657-.41.96-.716.304-.308.581-.717.834-1.23.253-.512.506-1.211.759-2.099.253-.888.53-1.997.834-3.329.303-1.331.64-2.952 1.011-4.865.168-.887.337-1.792.506-2.713.168-.923.311-1.81.43-2.664.117-.852.218-1.655.303-2.406.084-.751.126-1.4.126-1.946 0-.853-.16-1.528-.48-2.023-.32-.495-.902-.742-1.744-.742-.473 0-.877.085-1.214.255a3.72 3.72 0 0 0-.96.718c-.304.307-.582.716-.835 1.229-.253.511-.505 1.211-.758 2.099-.253.888-.53 1.997-.834 3.328-.304 1.332-.64 2.954-1.011 4.865-.17.888-.338 1.793-.506 2.714-.169.922-.32 1.81-.455 2.663a36.275 36.275 0 0 0-.303 2.407c-.068.752-.101 1.4-.101 1.946 0 .854.16 1.528.48 2.023.32.495.901.742 1.744.742z" fill="#ED1B42"/>
    <path d="M147.367.814l-7.18 36.461h15.775l1.213-6.145h-9l1.82-9.32h7.736l1.214-6.145h-7.736l1.72-8.706h15.285l-5.966 30.316h6.775l5.966-30.316h5.763l1.214-6.145h-34.6zm-6.286 2.458a5.237 5.237 0 0 0-2.604-1.92c-1.061-.359-2.402-.538-4.02-.538h-9.252l-7.179 36.46h9.91c1.92 0 3.454-.144 4.6-.434 1.146-.29 2.191-.862 3.136-1.716a8.57 8.57 0 0 0 1.187-1.383c.354-.512.683-1.109.986-1.792.304-.682.582-1.46.835-2.33.252-.87.497-1.886.733-3.047.168-.785.278-1.493.328-2.125.05-.631.076-1.203.076-1.716 0-1.296-.303-2.372-.91-3.226a4.649 4.649 0 0 0-.607-.69 4.15 4.15 0 0 0-.808-.59 6.2 6.2 0 0 0 1.061-.563c.304-.205.59-.427.86-.666.842-.75 1.432-1.604 1.77-2.56.336-.956.622-2.014.859-3.175.168-.751.278-1.416.328-1.997.05-.58.076-1.058.076-1.434 0-1.81-.455-3.329-1.365-4.558zm-8.393 23.044a15.755 15.755 0 0 1-.581 2.202c-.22.614-.489 1.11-.809 1.485-.32.376-.725.658-1.213.845-.49.188-1.105.282-1.846.282h-2.225l1.286-6.512c.421-2.878-4.044-3.474-4.044-3.474h6.955c.977 0 1.685.214 2.124.64.437.428.657 1.119.657 2.074 0 .683-.102 1.503-.304 2.458zm2.579-15.055c-.27 1.4-.708 2.424-1.315 3.072-.606.649-1.584.973-2.932.973h-1.922l1.67-8.347h2.122c1.045 0 1.745.205 2.099.614.354.41.53.991.53 1.742 0 .512-.084 1.16-.252 1.946z" fill="#FFF"/>
  </g>
</svg>