<?xml version="1.0" encoding="utf-8"?>
<!-- Generator: Adobe Illustrator 23.0.1, SVG Export Plug-In . SVG Version: 6.00 Build 0)  -->
<svg version="1.1" id="Layer_1" xmlns="http://www.w3.org/2000/svg" xmlns:xlink="http://www.w3.org/1999/xlink" x="0px" y="0px"
	 viewBox="0 0 799 506.5" style="enable-background:new 0 0 799 506.5;" xml:space="preserve">
<style type="text/css">
	.st0{fill:#FFFFFF;}
</style>
<title>sugar_house_l</title>
<path class="st0" d="M0,19.2V0h799v19.1L0,19.2z"/>
<path class="st0" d="M0,506.5v-19h799v19H0z"/>
<path class="st0" d="M253,430c-46.4-0.6-80.3-34.9-79.8-80.5c0.5-46.2,35.9-79.6,83.6-78.9c44.6,0.6,78.2,36,77.6,81.7
	C333.8,396.3,297.8,430.6,253,430z M306,350.3c-0.1-1.8-0.2-4.7-0.5-7.5c-3.6-38.4-46.4-59.9-79.2-39.9
	c-18.4,11.2-27.6,33.6-23.8,57.8c4.3,28.4,30.8,47.9,59.2,43.6c0.9-0.1,1.8-0.3,2.6-0.5C289.1,398.9,305.4,378.3,306,350.3z"/>
<path class="st0" d="M650.8,69.7c25.9,0,51.4-0.6,76.8,0.2c15.9,0.6,30.5,6.2,40.2,19.9c18.7,26.4,7.4,62.3-22.8,73.7
	c-1.4,0.5-2.8,1-4.9,1.8l41.2,57.9h-32.2L711.6,170h-33.9v53.3h-26.8V69.7z M677.8,145.7c16-0.3,31.8,1.3,47.5-0.8
	c13.4-1.6,21.7-9.8,23.2-20.4c2.3-16.3-6.5-27.9-23.2-29.7c-15.4-1.7-30.9-0.7-46.3-0.5c-0.4,0-0.8,0.4-1.2,0.6L677.8,145.7z"/>
<path class="st0" d="M453,87.9l-16.8,20c-28.2-24.3-63.5-19.3-80.1,1c-18,21.9-17.7,57.2,1.3,77.1c18.2,19.1,52.3,21,74.9,3.8v-28.7
	h-38.8v-23.4h64.8v64.8c-13.8,11.9-30.6,19.7-48.7,22.5c-20.7,3.2-40.6,0.7-58.8-10.3c-21.8-13.2-32.7-33.2-36-58.1
	c-4.4-33.3,13-66.8,42.9-81.8C387.6,60,430.5,65.7,453,87.9z"/>
<path class="st0" d="M44.7,362.9v64.4H18V273.5h26.8v63.4h73.4v-63.5h27.1v153.6h-26.6v-64.2H44.7z"/>
<path class="st0" d="M763.3,361.7h-76.5v41.4h87.7v24H659.8V273.4h113.4v23.9h-86.4v40.1h76.5L763.3,361.7z"/>
<path class="st0" d="M634.9,223.4h-28.7c-5-11.9-10.2-24.2-15.5-36.7h-73.1c-5.2,12-10.4,24.2-15.7,36.6h-26.8
	c0.4-3.7,61.6-145.1,67.1-154.9h25L634.9,223.4z M554.1,100.7c-9,21.2-17.6,41.1-26.2,61.3h52.8L554.1,100.7z"/>
<path class="st0" d="M154.1,69.6h26.5c1.3,2,0.7,4,0.7,6c0,27.2,0,54.3,0,81.5c-0.1,4.8,0.4,9.7,1.4,14.4
	c4.3,19.2,17.6,29.4,38.3,29.3c20.2-0.1,32.4-10,36.8-29.7c1-4.9,1.4-9.9,1.3-14.9c0-27,0-54,0-81v-5.4h26.5
	c1.1,1.3,0.6,2.9,0.6,4.3c0,28.3,0.3,56.7-0.1,85c-0.2,18.2-4.2,35.5-17.6,49.1c-15,15.2-34,18.6-54.3,17.6
	c-18.4-0.9-34.6-6.8-46.5-21.6c-8-10-12.6-22.3-13-35.1C153.3,136.2,154.5,103.2,154.1,69.6z"/>
<path class="st0" d="M350.6,273.3h26.5c1.2,2.4,0.7,4.8,0.7,7c0.1,26.3,0.1,52.7,0,79c-0.1,6,0.5,12,1.9,17.8
	c5.3,20,22.8,30.7,44.3,27.1c19.8-3.3,31.1-16.7,31.4-38.3c0.3-28.8,0.1-57.6,0.2-86.5c0-2-0.5-4,0.6-6.1H482
	c1.2,1.6,0.7,3.5,0.7,5.3c0,27.5,0,55,0,82.5c0.1,9-1.1,18-3.6,26.6c-7.6,24.8-27.7,40.2-54.5,41.8c-10.2,0.6-20.3,0.4-30.2-2.3
	c-24.8-6.7-40.9-26.3-42.9-52.9c-2.1-28.4-0.4-57-0.9-85.4C350.5,283.8,350.6,278.8,350.6,273.3z"/>
<path class="st0" d="M619.1,290.4l-14.3,20.2c-4.4-2.7-8.5-5.4-12.9-7.7c-11.3-6-23.1-9.2-36-7.3c-13.3,2-20.7,11.9-17.6,23.3
	c1.4,5.3,5.3,8.3,9.8,10.6c7.9,4,16.5,6,25.1,8.1c10.2,2.5,20.1,5.6,29.6,10.4c29.5,14.9,24.8,54.8,5.9,69.3
	c-13,10-27.9,12.7-43.8,12.3c-21.7-0.5-46.5-10.6-60.4-24.9c5.3-6.3,10.6-12.6,15.9-18.9c5.1,3.6,9.7,7.1,14.7,10.1
	c13.6,8.2,28.3,11.6,44,8.5c11.4-2.2,17.6-9.5,17.5-19.7c-0.1-6.6-3.5-10.9-9-13.9c-8.7-4.8-18.4-6.8-27.9-9.2
	c-8.4-1.9-16.7-4.6-24.6-8c-14.6-6.5-23.6-17-24.5-33.5c-1-17.6,5.4-31.6,20.7-40.9c13.6-8.3,28.5-9.4,43.9-7.6
	C591.3,273.5,606.6,280,619.1,290.4z"/>
<path class="st0" d="M7.4,201.1l16.1-19c5,3.5,9.6,7.1,14.6,10c13.8,8.2,28.6,11.8,44.5,8.5c11.6-2.4,17.4-9.7,17.1-20
	c-0.2-5.9-3.1-10-8-13c-8.1-4.9-17.2-7-26.3-9.1c-10.2-2.4-20.2-5.7-29.8-9.9C6.2,135.3,8.3,95.8,28,79.8c9.8-8,21.1-11.8,33.5-12.5
	c19.8-1.1,38,3.4,54.4,14.6c2,1.4,4.3,2.5,5.8,5.1L108,106.4c-2.5-0.2-3.9-2-5.7-3.1C89.8,95.2,76.3,90,60.9,91.5
	c-6.8,0.7-13,3-17.3,8.7c-5.4,7.4-3.8,17.7,3.6,23.1c0.5,0.4,1.1,0.7,1.7,1.1c9.3,5.5,19.9,7.4,30.2,10.1c8.6,2.1,17,5,25,8.8
	c15.6,7.7,23.4,20,22.8,37.6c-0.6,17.8-8.6,30.9-24.7,38.5c-17.2,8.2-35.2,7.8-53.3,3.6C33.3,219.5,19.7,212.1,7.4,201.1z"/>
</svg>
