<?xml version="1.0" encoding="utf-8"?>
<!-- Generator: Adobe Illustrator 22.1.0, SVG Export Plug-In . SVG Version: 6.00 Build 0)  -->
<svg version="1.1" id="Layer_1" xmlns="http://www.w3.org/2000/svg" xmlns:xlink="http://www.w3.org/1999/xlink" x="0px" y="0px"
	 viewBox="0 0 380 135" style="enable-background:new 0 0 380 135;" xml:space="preserve">
<path style="opacity:0.95;fill:#3AAA35;" d="M250.27547,95.68574c-10.75044,0-19.46593,8.80238-19.46593,19.66107
	c0,10.85983,8.71548,19.66108,19.46593,19.66108c10.74742,0,19.46291-8.80125,19.46291-19.66108
	C269.73837,104.48812,261.02289,95.68574,250.27547,95.68574z"/>
<path style="fill:#3AAA35;" d="M290.49402,95.68519c-10.74988,0-19.46481,8.80238-19.46481,19.66107
	c0,10.85983,8.71494,19.66163,19.46481,19.66163c10.74991,0,19.46594-8.8018,19.46594-19.66163
	C309.95996,104.48757,301.24393,95.68519,290.49402,95.68519z"/>
<path style="opacity:0.55;fill:#3AAA35;" d="M89.3919,95.68574c-10.7477,0-19.4621,8.80241-19.4621,19.66107
	c0,10.85983,8.71439,19.66108,19.4621,19.66108c10.75043,0,19.46511-8.80125,19.46511-19.66108
	C108.85701,104.48815,100.14233,95.68574,89.3919,95.68574z"/>
<path style="opacity:0.65;fill:#3AAA35;" d="M129.61293,95.68574c-10.75044,0-19.46457,8.80125-19.46457,19.65939
	c0,10.86037,8.71413,19.66276,19.46457,19.66276c10.74989,0,19.46593-8.80238,19.46593-19.66276
	C149.07886,104.48699,140.36282,95.68574,129.61293,95.68574z"/>
<path style="opacity:0.85;fill:#3AAA35;" d="M210.05499,95.68574c-10.75044,0-19.46649,8.80238-19.46649,19.65994
	c0,10.85983,8.71605,19.66221,19.46649,19.66221c10.74962,0,19.46455-8.80238,19.46455-19.66221
	C229.51955,104.48812,220.80461,95.68574,210.05499,95.68574z"/>
<path style="opacity:0.75;fill:#3AAA35;" d="M169.77699,95.68684c-10.75154,0-19.46594,8.80128-19.46594,19.65997
	c0,10.86092,8.7144,19.66108,19.46594,19.66108c10.7477,0,19.4632-8.80016,19.4632-19.66108
	C189.24019,104.48812,180.52469,95.68684,169.77699,95.68684z"/>
<path style="fill:#FFFFFF;" d="M309.44742,58.42933l-33.81158-0.03225l0.00439-13.09119l18.08484,0.02052
	c0.00073,0,0.00146,0,0.0022,0c0.39725,0,0.77908-0.15757,1.06055-0.43901c0.28143-0.2807,0.44046-0.66255,0.44046-1.06125
	l0.00806-14.1092c0.00073-0.82818-0.67059-1.50026-1.49878-1.50173l-18.07462-0.02199l0.00586-11.02659l31.7829,0.02345
	c0.00073,0,0.00073,0,0.00146,0c0.82819,0,1.49954-0.67061,1.50101-1.4988l0.01904-14.10627
	c0.00073-0.3987-0.15683-0.78055-0.43826-1.06198c-0.28143-0.28217-0.66327-0.44048-1.06125-0.44121l-50.54422-0.04837
	c-0.00073,0-0.00073,0-0.00146,0c-0.39798,0-0.77908,0.15758-1.06053,0.43901c-0.28143,0.2807-0.44048,0.66255-0.44048,1.06052
	l-0.0601,72.46842c-0.00073,0.82892,0.67061,1.50172,1.49953,1.50246l52.56851,0.04764c0.00073,0,0.00073,0,0.0015,0
	c0.39795,0,0.77905-0.15758,1.06052-0.43901c0.28143-0.28143,0.44046-0.66255,0.44046-1.06125l0.00952-14.1202
	C310.94766,59.10287,310.27634,58.43007,309.44742,58.42933z"/>
<path style="fill:#FFFFFF;" d="M133.48083,0.03347L116.46786,0.0254h-0.00073c-0.39796,0-0.77981,0.15831-1.06125,0.43901
	c-0.28143,0.28144-0.43974,0.66328-0.43974,1.06125l-0.00953,37.8107L98.42808,0.94081
	c-0.23673-0.55041-0.77908-0.90734-1.3786-0.90734H75.20224c-0.82892,0-1.50099,0.67208-1.50099,1.50099l-0.00367,72.508
	c0,0.82892,0.67135,1.50099,1.50027,1.50099l17.24971,0.00587c0.00073,0,0.00073,0,0.00073,0
	c0.39796,0,0.77981-0.15831,1.06125-0.43974c0.28143-0.28144,0.43974-0.66328,0.43974-1.06125l0.00439-42.86336l19.03727,43.45555
	c0.23893,0.54528,0.77835,0.89781,1.37421,0.89854l19.11349,0.01246h0.00073c0.39798,0,0.77982-0.15831,1.06125-0.43901
	c0.28145-0.28143,0.43974-0.66402,0.43974-1.06198l0.00073-72.51606C134.98109,0.70554,134.30975,0.0342,133.48083,0.03347z"/>
<path style="fill:#FFFFFF;" d="M58.96345,0.03151L39.79546,0.0254c-0.19028,0-0.37655,0.0771-0.51091,0.21108
	c-0.13627,0.13627-0.21127,0.31681-0.21127,0.50843v46.55373c0,5.10526-4.15329,9.25855-9.25836,9.25855
	c-5.10535,0-9.25893-4.15329-9.25893-9.25855V9.10608l-0.00048,0.00076l-0.00048-2.72497l0.00095-5.63124
	c0-0.39659-0.3234-0.71913-0.72084-0.71913L0.66716,0.0254c-0.19305,0-0.37464,0.07481-0.51091,0.21108
	S-0.05512,0.5533-0.05512,0.74491v46.55373c0,16.47004,13.39963,29.86966,29.87004,29.86966
	c16.47013,0,29.86947-13.39962,29.86947-29.86966V6.38073l-0.00105,0.00114l0.00105-5.63124
	C59.68439,0.35405,59.361,0.03151,58.96345,0.03151z"/>
<path style="fill:#FFFFFF;" d="M169.27971,1.55938c0.00073-0.82892-0.67061-1.50099-1.49953-1.50173L150.50702,0.0254
	c-0.00073,0-0.00073,0-0.00146,0c-0.82819,0-1.50027,0.67134-1.50101,1.49953l-0.01025,72.4435
	c0,0.3987,0.15758,0.78054,0.43901,1.06198c0.28143,0.28217,0.66255,0.44048,1.06125,0.44048l17.27609,0.02638h0.00073
	c0.39796,0,0.77908-0.15757,1.06052-0.43901c0.28217-0.28143,0.44048-0.66328,0.44048-1.06125L169.27971,1.55938z"/>
<path style="fill:#FFFFFF;" d="M235.96602,34.66128c3.90843-3.65405,6.36542-8.84095,6.36542-14.61351
	c0-11.05807-8.96413-20.02237-20.0222-20.02237c-0.14777,0-0.29016,0.01889-0.43658,0.02206l-9.38531-0.02206v0.01855
	l-27.65723-0.01053h-0.00134c-0.82835,0-1.50026,0.67141-1.50093,1.50026l-0.03476,72.45513
	c0,0.39812,0.15712,0.77988,0.43858,1.06201c0.28146,0.28147,0.66388,0.43992,1.06235,0.43992l27.69333,0.00552v0.001h4.94804
	c0.00735,0,0.01405,0,0.02139,0h4.48943c12.61182,0,22.8362-10.22404,22.8362-22.83603
	C244.78239,45.34011,241.3239,38.84031,235.96602,34.66128z M203.12674,15.13331h15.11894c2.97446,0,5.38664,2.41152,5.38664,5.3863
	c0,2.97495-2.41219,5.38647-5.38664,5.38647h-15.11894V15.13331z M218.02707,57.50215c-0.0107,0-0.02072-0.0015-0.03143-0.0015
	h-14.8689v-15.7494h14.90033c4.34969,0,7.8757,3.52602,7.8757,7.87537C225.90277,53.97614,222.37675,57.50215,218.02707,57.50215z"
	/>
<path style="fill:#FFFFFF;" d="M379.50732,0.58022c-0.28143-0.28144-0.66254-0.44048-1.06125-0.44121L321.7735,0.03347
	c-0.00073,0-0.00146,0-0.0022,0c-0.82745,0-1.49954,0.67061-1.50101,1.49806l-0.02417,13.97728
	c-0.00146,0.82965,0.66913,1.50246,1.49805,1.50393l17.78903,0.03664l-0.09381,56.95351
	c-0.00073,0.39796,0.15683,0.77981,0.43826,1.06198c0.28073,0.28217,0.66257,0.44048,1.06052,0.44121l17.92548,0.02345
	c0.00073,0,0.00146,0,0.0022,0c0.82819,0,1.49951-0.67061,1.50098-1.49879l0.08942-56.95203l17.96054,0.03518
	c0.00073,0,0.00146,0,0.0022,0c0.82745,0,1.49951-0.67061,1.50098-1.49806l0.02493-13.97288
	C379.94562,1.24423,379.78802,0.86238,379.50732,0.58022z"/>
</svg>
